<svg xmlns="http://www.w3.org/2000/svg" width="129.293" height="40" viewBox="0 0 129.293 40">
  <path id="Path_381" data-name="Path 381" d="M349.924,805.276v-40h8.028v34.2h9.59v5.8H349.924Zm-25.126,0v-40h17.078v5.8h-9.05v10.543h6.982v5.8h-6.982v12.048h9.05v5.8H324.8Zm-25.083,0v-40h17.078v5.8h-9.05v10.543h7.53v5.8h-7.53v17.851Zm-22.626-13.943,2.272-14.882,2.271,14.882Zm14.682,13.943-8.11-40h-8.6l-8.11,40h8.028l1.277-8.651h6.068l1.42,8.651Zm-47.156,0V771.435h-6.366v-6.159h20.761v6.159h-6.367v33.841Z" transform="translate(-238.248 -765.276)" fill="#fff" fill-rule="evenodd"/>
</svg>
