<svg xmlns="http://www.w3.org/2000/svg" width="15.572" height="15.57" viewBox="0 0 15.572 15.57">
  <g id="user" transform="translate(38.3 -167)">
    <path id="Path_389" data-name="Path 389" d="M-34.926,176.56a6.116,6.116,0,0,1,2.345-1.469,3.567,3.567,0,0,1-1.548-2.937,3.57,3.57,0,0,1,3.566-3.566A3.57,3.57,0,0,1-27,172.154a3.559,3.559,0,0,1-1.548,2.937A6.153,6.153,0,0,1-26.2,176.56a6.128,6.128,0,0,1,1.695,3.176,7.75,7.75,0,0,0,1.777-4.95A7.787,7.787,0,0,0-30.514,167a7.787,7.787,0,0,0-7.786,7.786,7.762,7.762,0,0,0,1.7,4.861A6.077,6.077,0,0,1-34.926,176.56Z" transform="translate(0 0)" fill="#fff"/>
    <path id="Path_390" data-name="Path 390" d="M50.19,452.5A5.212,5.212,0,0,0,45,457.327a7.78,7.78,0,0,0,10.384.076A5.207,5.207,0,0,0,50.19,452.5Z" transform="translate(-80.757 -276.782)" fill="#fff"/>
    <path id="Path_391" data-name="Path 391" d="M132.4,250.5a2.6,2.6,0,1,0,2.6,2.6A2.6,2.6,0,0,0,132.4,250.5Z" transform="translate(-162.968 -80.95)" fill="#fff"/>
  </g>
</svg>
