<svg xmlns="http://www.w3.org/2000/svg" width="20.551" height="20.55" viewBox="0 0 20.551 20.55">
  <defs>
    <style>
      .cls-1 {
        fill: #fff;
      }
    </style>
  </defs>
  <path id="check-mark" class="cls-1" d="M14.817,7.015a.8.8,0,0,1,0,1.135L9.432,13.535a.8.8,0,0,1-1.135,0L5.733,10.972A.8.8,0,0,1,6.868,9.836l2,2,4.818-4.818A.8.8,0,0,1,14.817,7.015Zm5.733,3.26A10.275,10.275,0,1,1,10.275,0,10.269,10.269,0,0,1,20.55,10.275Zm-1.605,0a8.67,8.67,0,1,0-8.67,8.67A8.665,8.665,0,0,0,18.945,10.275Zm0,0" transform="translate(0.001)"/>
</svg>
