<svg xmlns="http://www.w3.org/2000/svg" width="16.237" height="16.237" viewBox="0 0 16.237 16.237">
  <defs>
    <style>
      .cls-1 {
        fill: #4d4f5c;
        stroke: #4d4f5c;
      }
    </style>
  </defs>
  <g id="chef" transform="translate(0.5 0.5)">
    <g id="Group_573" data-name="Group 573">
      <g id="Group_572" data-name="Group 572">
        <path id="Path_596" data-name="Path 596" class="cls-1" d="M107.359,213.679a.346.346,0,0,0-.693,0,4.864,4.864,0,0,0,1.117,2.3.346.346,0,1,0,.536-.44A4.2,4.2,0,0,1,107.359,213.679Z" transform="translate(-103.203 -206.407)"/>
        <path id="Path_597" data-name="Path 597" class="cls-1" d="M310.722,213.333a.346.346,0,0,0-.346.346,4.213,4.213,0,0,1-.96,1.858.346.346,0,0,0,.536.439,4.864,4.864,0,0,0,1.117-2.3A.346.346,0,0,0,310.722,213.333Z" transform="translate(-299.294 -206.407)"/>
        <path id="Path_598" data-name="Path 598" class="cls-1" d="M224.346,213.333a.346.346,0,0,0-.346.346v2.078a.346.346,0,0,0,.693,0v-2.078A.346.346,0,0,0,224.346,213.333Z" transform="translate(-216.728 -206.407)"/>
        <path id="Path_599" data-name="Path 599" class="cls-1" d="M11.428,1.385a3.627,3.627,0,0,0-.657.07,4.142,4.142,0,0,0-6.3,0,3.631,3.631,0,0,0-.657-.07,3.808,3.808,0,0,0-1.723,7.2l-.007,5.233a1.413,1.413,0,0,0,1.413,1.415h8.255a1.414,1.414,0,0,0,1.413-1.413V8.584a3.807,3.807,0,0,0-1.732-7.2Zm1.039,12.439a.721.721,0,0,1-.72.72H3.492a.721.721,0,0,1-.72-.721l0-1.357h9.693Zm.214-5.779a.31.31,0,0,0-.052.027.347.347,0,0,0-.159.243.335.335,0,0,0,0,.058v3.4H2.774l0-3.4a.357.357,0,0,0,0-.057.347.347,0,0,0-.055-.143.343.343,0,0,0-.1-.1.362.362,0,0,0-.054-.028A3.115,3.115,0,0,1,3.809,2.078c.067,0,.138.008.208.014a4.126,4.126,0,0,0-.554,2.064.346.346,0,0,0,.693,0,3.463,3.463,0,1,1,6.926,0,.346.346,0,1,0,.693,0,4.126,4.126,0,0,0-.554-2.064c.07-.005.14-.014.208-.014a3.115,3.115,0,0,1,1.253,5.967Z"/>
      </g>
    </g>
  </g>
</svg>
