<svg id="scooter" xmlns="http://www.w3.org/2000/svg" width="44.248" height="39.771" viewBox="0 0 44.248 39.771">
  <defs>
    <style>
      .cls-1 {
        fill: #fff;
      }
    </style>
  </defs>
  <path id="Path_647" data-name="Path 647" class="cls-1" d="M7.018,36.572h8.925V25.828H9.271v4.766h-2.6V25.828H0V39.172H1.823A6.493,6.493,0,0,1,7.018,36.572Z" transform="translate(0 -25.828)"/>
  <path id="Path_648" data-name="Path 648" class="cls-1" d="M52.561,434.594h0a6.07,6.07,0,0,0,5.924-4.766H46.642A6.073,6.073,0,0,0,52.561,434.594Z" transform="translate(-42.601 -394.822)"/>
  <path id="Path_649" data-name="Path 649" class="cls-1" d="M363.566,434.594h.005a6.074,6.074,0,0,0,5.919-4.766H357.643A6.076,6.076,0,0,0,363.566,434.594Z" transform="translate(-326.654 -394.822)"/>
  <path id="Path_650" data-name="Path 650" class="cls-1" d="M36.194,183.373a9.915,9.915,0,0,1,4.228-.945h9.359a5.2,5.2,0,0,1,5.2,5.058,3.9,3.9,0,0,0-1.036-7.657H40.076A3.9,3.9,0,0,0,36.194,183.373Z" transform="translate(-33.058 -166.484)"/>
  <path id="Path_651" data-name="Path 651" class="cls-1" d="M298.918,98.493h4.332a4.332,4.332,0,1,0,0-8.665h-4.332v1.444h-4.751v2.6h4.751Z" transform="translate(-268.678 -84.283)"/>
  <path id="Path_652" data-name="Path 652" class="cls-1" d="M348.658,328.827h-.006a7.455,7.455,0,0,0-7.337,6.152h14.673A7.46,7.46,0,0,0,348.658,328.827Z" transform="translate(-311.741 -302.573)"/>
  <path id="Path_653" data-name="Path 653" class="cls-1" d="M68.388,340.968a3.865,3.865,0,0,0-2.752-1.141H63.9a3.9,3.9,0,0,0-3.9,3.9v1.3h9.531v-1.3A3.882,3.882,0,0,0,68.388,340.968Z" transform="translate(-54.801 -312.62)"/>
  <path id="Path_654" data-name="Path 654" class="cls-1" d="M21.486,248.493a2.167,2.167,0,0,1-2.163-2.166v-3.9a2.6,2.6,0,0,0-2.6-2.6H7.364A7.378,7.378,0,0,0,0,247.2v6.488H2.6v-1.3a6.506,6.506,0,0,1,6.5-6.5h1.739a6.5,6.5,0,0,1,6.493,6.5v1.3h9.606l.078-.448a9.949,9.949,0,0,1,2.232-4.751h-7.76Z" transform="translate(0 -221.285)"/>
  <path id="Path_655" data-name="Path 655" class="cls-1" d="M353.332,211.693H349v9.381a9.989,9.989,0,0,1,6.671-2.536h.006a10,10,0,0,1,2.226.252l-1.4-7.868A6.886,6.886,0,0,1,353.332,211.693Z" transform="translate(-318.76 -194.883)"/>
</svg>
