<svg xmlns="http://www.w3.org/2000/svg" width="20.351" height="16.549" viewBox="0 0 20.351 16.549">
  <defs>
    <style>
      .cls-1 {
        fill: #fff;
      }
    </style>
  </defs>
  <g id="like_1_" data-name="like (1)" transform="translate(0 -47.818)">
    <g id="Group_797" data-name="Group 797" transform="translate(3.693 60.914)">
      <g id="Group_796" data-name="Group 796">
        <circle id="Ellipse_10" data-name="Ellipse 10" class="cls-1" cx="0.688" cy="0.688" r="0.688"/>
      </g>
    </g>
    <g id="Group_799" data-name="Group 799" transform="translate(0 47.818)">
      <g id="Group_798" data-name="Group 798" transform="translate(0 0)">
        <path id="Path_750" data-name="Path 750" class="cls-1" d="M19.938,57.892a1.6,1.6,0,0,0-.283-.911,1.612,1.612,0,0,0-.917-2.939H14.5l.269-.6a6.821,6.821,0,0,0,.595-2.78s0-1.177,0-1.183a1.658,1.658,0,0,0-3.2-.621c-.011.028-.4,1.164-.4,1.164a5.874,5.874,0,0,1-1.785,2.593L8.018,54.258H6.881v-.519a.99.99,0,0,0-.989-.989H.989A.99.99,0,0,0,0,53.739v9.639a.99.99,0,0,0,.989.989h4.9a.99.99,0,0,0,.989-.989V62.6H7.5l.616.3a10.874,10.874,0,0,0,4.7,1.077H17.5a1.612,1.612,0,0,0,1.33-2.524,1.61,1.61,0,0,0,.413-2.237A1.612,1.612,0,0,0,19.938,57.892ZM5.891,63.378H.989V53.739h4.9v9.639Zm12.846-7.1h-.7a.495.495,0,0,0,0,.989h.291a.624.624,0,1,1,0,1.248h-.7a.495.495,0,0,0,0,.989h.291a.624.624,0,1,1,0,1.248h-.7a.495.495,0,1,0,0,.989H17.5a.624.624,0,1,1,0,1.248H12.823a9.879,9.879,0,0,1-4.274-.979l-.718-.347a.5.5,0,0,0-.215-.049H6.881V55.248H8.2a.494.494,0,0,0,.317-.115l2.1-1.761a6.863,6.863,0,0,0,2.086-3.03s.393-1.146.4-1.153a.669.669,0,0,1,1.273.288c0,.007,0,1.181,0,1.181a5.836,5.836,0,0,1-.509,2.38l-.576,1.292a.492.492,0,0,0-.021.345.508.508,0,0,0,.475.357h5a.624.624,0,1,1,0,1.248Z" transform="translate(0 -47.818)"/>
      </g>
    </g>
  </g>
</svg>
