<svg id="loading" xmlns="http://www.w3.org/2000/svg" width="47.816" height="47.817" viewBox="0 0 47.816 47.817">
  <defs>
    <style>
      .cls-1 {
        fill: #65f4ba;
      }

      .cls-2 {
        fill: #30de98;
      }

      .cls-3 {
        fill: #95ffd4;
      }

      .cls-4 {
        fill: #b7ffe2;
      }

      .cls-5 {
        fill: #d8ffef;
      }

      .cls-6 {
        fill: #45e5a4;
      }
    </style>
  </defs>
  <path id="Path_700" data-name="Path 700" class="cls-1" d="M226.314,8.869A2.272,2.272,0,0,1,224,6.556V2.314a2.314,2.314,0,0,1,4.627,0V6.556A2.32,2.32,0,0,1,226.314,8.869Z" transform="translate(-202.405)"/>
  <path id="Path_701" data-name="Path 701" class="cls-2" d="M226.314,412.869A2.272,2.272,0,0,1,224,410.556v-4.242a2.314,2.314,0,0,1,4.627,0v4.242A2.272,2.272,0,0,1,226.314,412.869Z" transform="translate(-202.405 -365.052)"/>
  <path id="Path_702" data-name="Path 702" class="cls-3" d="M116.528,38.784a2.324,2.324,0,0,1-2.005-1.157L112.44,34a2.315,2.315,0,0,1,4.01-2.314l2.082,3.625a2.361,2.361,0,0,1-.848,3.162A2.859,2.859,0,0,1,116.528,38.784Z" transform="translate(-101.334 -27.601)"/>
  <path id="Path_703" data-name="Path 703" class="cls-2" d="M318.928,388.384a2.324,2.324,0,0,1-2.005-1.157L314.84,383.6a2.315,2.315,0,0,1,4.01-2.314l2.082,3.625a2.361,2.361,0,0,1-.848,3.162A2.177,2.177,0,0,1,318.928,388.384Z" transform="translate(-284.222 -343.498)"/>
  <path id="Path_704" data-name="Path 704" class="cls-4" d="M36.47,118.841a2.176,2.176,0,0,1-1.157-.309l-3.625-2.082A2.315,2.315,0,0,1,34,112.44l3.625,2.082a2.361,2.361,0,0,1,.848,3.162A2.324,2.324,0,0,1,36.47,118.841Z" transform="translate(-27.601 -101.334)"/>
  <path id="Path_705" data-name="Path 705" class="cls-2" d="M386.147,321.241a2.177,2.177,0,0,1-1.157-.308l-3.7-2.082a2.315,2.315,0,0,1,2.314-4.01l3.625,2.082a2.361,2.361,0,0,1,.848,3.162A2.121,2.121,0,0,1,386.147,321.241Z" transform="translate(-343.498 -284.222)"/>
  <path id="Path_706" data-name="Path 706" class="cls-5" d="M6.556,228.627H2.314a2.314,2.314,0,0,1,0-4.627H6.556a2.272,2.272,0,0,1,2.314,2.314A2.32,2.32,0,0,1,6.556,228.627Z" transform="translate(0 -202.405)"/>
  <path id="Path_707" data-name="Path 707" class="cls-2" d="M410.556,228.627h-4.242a2.314,2.314,0,0,1,0-4.627h4.242a2.314,2.314,0,0,1,0,4.627Z" transform="translate(-365.052 -202.405)"/>
  <path id="Path_708" data-name="Path 708" class="cls-2" d="M32.045,321.241a2.324,2.324,0,0,1-2.005-1.157,2.361,2.361,0,0,1,.848-3.162l3.625-2.082a2.315,2.315,0,0,1,2.314,4.01L33.2,320.933A1.859,1.859,0,0,1,32.045,321.241Z" transform="translate(-26.878 -284.222)"/>
  <path id="Path_709" data-name="Path 709" class="cls-2" d="M382.445,118.841a2.324,2.324,0,0,1-2.005-1.157,2.361,2.361,0,0,1,.848-3.162l3.625-2.082a2.315,2.315,0,1,1,2.314,4.01l-3.625,2.082A2.176,2.176,0,0,1,382.445,118.841Z" transform="translate(-343.498 -101.334)"/>
  <path id="Path_710" data-name="Path 710" class="cls-2" d="M114.445,388.384a2.177,2.177,0,0,1-1.157-.309,2.361,2.361,0,0,1-.848-3.162l2.082-3.625a2.315,2.315,0,0,1,4.01,2.314l-2.082,3.625A2.324,2.324,0,0,1,114.445,388.384Z" transform="translate(-101.334 -343.498)"/>
  <path id="Path_711" data-name="Path 711" class="cls-6" d="M316.845,38.784a2.176,2.176,0,0,1-1.157-.308,2.361,2.361,0,0,1-.848-3.162l2.082-3.625A2.315,2.315,0,1,1,320.933,34l-2.082,3.625A2.505,2.505,0,0,1,316.845,38.784Z" transform="translate(-284.222 -27.601)"/>
</svg>
