<svg xmlns="http://www.w3.org/2000/svg" width="33.412" height="40" viewBox="0 0 33.412 40">
  <defs>
    <style>
      .cls-1 {
        fill: #fff;
      }
    </style>
  </defs>
  <g id="smartphone" transform="translate(-34.045 -32)">
    <path id="Path_668" data-name="Path 668" class="cls-1" d="M184,112h1.4v1.4H184Z" transform="translate(-136.791 -72.977)"/>
    <path id="Path_669" data-name="Path 669" class="cls-1" d="M248,176h1.4v1.4H248Z" transform="translate(-195.172 -131.358)"/>
    <path id="Path_670" data-name="Path 670" class="cls-1" d="M248,240h1.4v1.4H248Z" transform="translate(-195.172 -189.74)"/>
    <path id="Path_671" data-name="Path 671" class="cls-1" d="M184,176h1.4v1.4H184Z" transform="translate(-136.791 -131.358)"/>
    <path id="Path_672" data-name="Path 672" class="cls-1" d="M41.591,196.272V179.417a2.814,2.814,0,0,0-2.237-2.751l-1.989,10.606a.69.69,0,0,1-.024.093l-2.071,6.213v7.611a.7.7,0,0,1-.206.5L34.045,202.7l17.662,1.262,1.195-2.389a.7.7,0,0,1,.256-.281l3.542-2.214H44.4a2.812,2.812,0,0,1-2.809-2.809Z" transform="translate(0 -131.966)"/>
    <path id="Path_673" data-name="Path 673" class="cls-1" d="M184,240h1.4v1.4H184Z" transform="translate(-136.791 -189.74)"/>
    <path id="Path_674" data-name="Path 674" class="cls-1" d="M353.75,102.368a1.284,1.284,0,0,0,1.816,0h0l2.808-2.808a1.284,1.284,0,1,0-1.816-1.816l-2.809,2.809A1.286,1.286,0,0,0,353.75,102.368Z" transform="translate(-291.296 -59.628)"/>
    <path id="Path_675" data-name="Path 675" class="cls-1" d="M248,112h1.4v1.4H248Z" transform="translate(-195.172 -72.977)"/>
    <path id="Path_676" data-name="Path 676" class="cls-1" d="M184,304h1.4v1.4H184Z" transform="translate(-136.791 -248.122)"/>
    <path id="Path_677" data-name="Path 677" class="cls-1" d="M248,304h1.4v1.4H248Z" transform="translate(-195.172 -248.122)"/>
    <path id="Path_678" data-name="Path 678" class="cls-1" d="M357.468,225.372a1.276,1.276,0,0,0-.908.376h0l-2.808,2.808a1.284,1.284,0,0,0,1.816,1.817h0l2.808-2.808a1.284,1.284,0,0,0-.908-2.192Z" transform="translate(-291.296 -176.396)"/>
    <path id="Path_679" data-name="Path 679" class="cls-1" d="M357.47,289.372a1.276,1.276,0,0,0-.908.376h0l-2.808,2.808a1.284,1.284,0,1,0,1.816,1.816l2.809-2.809a1.284,1.284,0,0,0-.908-2.192Z" transform="translate(-291.298 -234.778)"/>
    <path id="Path_680" data-name="Path 680" class="cls-1" d="M357.468,161.372a1.276,1.276,0,0,0-.908.376h0l-2.808,2.808a1.284,1.284,0,0,0,1.816,1.817h0l2.808-2.808a1.284,1.284,0,0,0-.908-2.192Z" transform="translate(-291.296 -118.015)"/>
    <path id="Path_681" data-name="Path 681" class="cls-1" d="M154.466,60.589a2.692,2.692,0,0,1,0-3.8l1.138-1.138a2.69,2.69,0,0,1-1.138-4.48L155.6,50.03a2.69,2.69,0,0,1-1.138-4.48l1.138-1.138a2.69,2.69,0,0,1-1.138-4.48l2.6-2.6V33.4a1.406,1.406,0,0,0-1.4-1.4H137.4a1.406,1.406,0,0,0-1.4,1.4v30.9a1.406,1.406,0,0,0,1.4,1.4h18.26a1.406,1.406,0,0,0,1.4-1.4V61.284a2.705,2.705,0,0,1-.7.093A2.671,2.671,0,0,1,154.466,60.589ZM144.428,33.4h1.4v1.4h-1.4Zm-1.4,24.581a.7.7,0,0,1-.7.7h-2.809a.7.7,0,0,1-.7-.7V55.176a.7.7,0,0,1,.7-.7h2.809a.7.7,0,0,1,.7.7Zm0-5.618a.7.7,0,0,1-.7.7h-2.809a.7.7,0,0,1-.7-.7V49.558a.7.7,0,0,1,.7-.7h2.809a.7.7,0,0,1,.7.7Zm0-5.618a.7.7,0,0,1-.7.7h-2.809a.7.7,0,0,1-.7-.7V43.939a.7.7,0,0,1,.7-.7h2.809a.7.7,0,0,1,.7.7Zm0-5.618a.7.7,0,0,1-.7.7h-2.809a.7.7,0,0,1-.7-.7V38.321a.7.7,0,0,1,.7-.7h2.809a.7.7,0,0,1,.7.7Zm4.214,23.176h-1.4V62.9h1.4Zm1.4-6.321a.7.7,0,0,1-.7.7H145.13a.7.7,0,0,1-.7-.7V55.176a.7.7,0,0,1,.7-.7h2.809a.7.7,0,0,1,.7.7Zm0-5.618a.7.7,0,0,1-.7.7H145.13a.7.7,0,0,1-.7-.7V49.558a.7.7,0,0,1,.7-.7h2.809a.7.7,0,0,1,.7.7Zm0-5.618a.7.7,0,0,1-.7.7H145.13a.7.7,0,0,1-.7-.7V43.939a.7.7,0,0,1,.7-.7h2.809a.7.7,0,0,1,.7.7Zm0-5.618a.7.7,0,0,1-.7.7H145.13a.7.7,0,0,1-.7-.7V38.321a.7.7,0,0,1,.7-.7h2.809a.7.7,0,0,1,.7.7Zm0-6.321h-1.4V33.4h1.4Zm4.214,21.069h-1.4v1.4h1.4v1.4h-2.107a.7.7,0,0,1-.7-.7V55.176a.7.7,0,0,1,.7-.7h2.107Zm0-5.618h-1.4v1.4h1.4v1.4h-2.107a.7.7,0,0,1-.7-.7V49.558a.7.7,0,0,1,.7-.7h2.107Zm0-5.618h-1.4v1.4h1.4v1.4h-2.107a.7.7,0,0,1-.7-.7V43.939a.7.7,0,0,1,.7-.7h2.107Zm0-5.618h-1.4v1.4h1.4v1.4h-2.107a.7.7,0,0,1-.7-.7V38.321a.7.7,0,0,1,.7-.7h2.107Z" transform="translate(-93.005 0)"/>
  </g>
</svg>
