<svg xmlns="http://www.w3.org/2000/svg" width="21.725" height="28" viewBox="0 0 21.725 28">
  <g id="Group_842" data-name="Group 842" transform="translate(-1143.639 -205)">
    <g id="Group_841" data-name="Group 841">
      <g id="Group_840" data-name="Group 840">
        <g id="Group_839" data-name="Group 839">
          <g id="pdf" transform="translate(1137.139 205)">
            <path id="Path_731" data-name="Path 731" d="M38.144,24.942a.764.764,0,0,0,.111-.2c-.059-.031-.138-.1-.567-.1a6.949,6.949,0,0,0-.874.052c.393.3.49.456.747.456A.725.725,0,0,0,38.144,24.942Z" transform="translate(-15.68 -12.748)" fill="#fff"/>
            <path id="Path_732" data-name="Path 732" d="M20.311,30.857c.072-.023.492-.214,1.274-1.659-1.032.58-1.452,1.056-1.482,1.325C20.1,30.567,20.085,30.684,20.311,30.857Z" transform="translate(-7.035 -15.102)" fill="#fff"/>
            <path id="Path_733" data-name="Path 733" d="M28.224,18.828V6.748a1.115,1.115,0,0,0-.266-.865L22.341.266A.913.913,0,0,0,21.7,0H7.689A1.252,1.252,0,0,0,6.5,1.413V18.828ZM21.466,1.637a.248.248,0,0,1,.423-.175l4.873,4.873a.248.248,0,0,1-.175.423H21.466ZM12.26,15.33c.088-.786,1.06-1.609,2.889-2.447a32.406,32.406,0,0,0,1.829-5.19c-.482-1.049-.95-2.409-.609-3.207a.926.926,0,0,1,.547-.587,2.37,2.37,0,0,1,.49-.083c.243,0,.457.313.609.506s.465.566-.18,3.284a15.426,15.426,0,0,0,2.456,3.651,9.392,9.392,0,0,1,1.621-.173c.756,0,1.214.176,1.4.539a.977.977,0,0,1-.188,1.043,1.283,1.283,0,0,1-1.072.575,3.209,3.209,0,0,1-2.033-1.1A23.12,23.12,0,0,0,15.76,13.5a13.7,13.7,0,0,1-1.15,2.052c-.494.694-.921,1.017-1.343,1.017h0a.775.775,0,0,1-.467-.157A1.158,1.158,0,0,1,12.26,15.33Z" fill="#fff"/>
            <path id="Path_734" data-name="Path 734" d="M19.755,45.5a.8.8,0,0,0-.287-.238,1.067,1.067,0,0,0-.489-.1h-.594V47.1h.726a.863.863,0,0,0,.287-.05.724.724,0,0,0,.261-.162.791.791,0,0,0,.191-.313,1.484,1.484,0,0,0,.072-.5,1.348,1.348,0,0,0-.033-.274A.8.8,0,0,0,19.755,45.5Z" transform="translate(-6.147 -23.363)" fill="#fff"/>
            <path id="Path_735" data-name="Path 735" d="M27.96,18.174a34.525,34.525,0,0,1-1.291,3.652,24.121,24.121,0,0,1,3.136-.975A16.525,16.525,0,0,1,27.96,18.174Z" transform="translate(-10.432 -9.4)" fill="#fff"/>
            <path id="Path_736" data-name="Path 736" d="M6.5,41v7.241a1.171,1.171,0,0,0,1.189.966H27.035a1.171,1.171,0,0,0,1.189-.966V41Zm7.915,3.586a1.4,1.4,0,0,1-.35.5,1.577,1.577,0,0,1-.541.317,2.082,2.082,0,0,1-.7.112h-.588v1.756h-.792V42.412h1.4a1.964,1.964,0,0,1,.614.1,1.669,1.669,0,0,1,.545.3,1.55,1.55,0,0,1,.39.478,1.326,1.326,0,0,1,.149.63A1.716,1.716,0,0,1,14.415,44.586Zm4.855,1.148a2.552,2.552,0,0,1-.327.713,1.679,1.679,0,0,1-.446.452,2.235,2.235,0,0,1-.478.248,1.977,1.977,0,0,1-.422.106,2.813,2.813,0,0,1-.284.022H15.472V42.412h1.465a2.784,2.784,0,0,1,1.079.195,2.24,2.24,0,0,1,.772.518,2.126,2.126,0,0,1,.459.736,2.442,2.442,0,0,1,.152.848A3.559,3.559,0,0,1,19.27,45.735Zm4.32-2.723H21.352v1.531h2.033v.541H21.352v2.191h-.805V42.412H23.59Z" transform="translate(0 -21.207)" fill="#fff"/>
            <path id="Path_737" data-name="Path 737" d="M28.675,45.705a1.48,1.48,0,0,0-.564-.39,2.43,2.43,0,0,0-.924-.149h-.462V48.85h.785a1.311,1.311,0,0,0,1.162-.515,2.613,2.613,0,0,0,.356-1.492,2.527,2.527,0,0,0-.072-.6A1.285,1.285,0,0,0,28.675,45.705Z" transform="translate(-10.461 -23.362)" fill="#fff"/>
            <path id="Path_738" data-name="Path 738" d="M28.432,9.712a1.158,1.158,0,0,0,.046,1.553C28.937,10.243,28.453,9.705,28.432,9.712Z" transform="translate(-11.197 -5.023)" fill="#fff"/>
          </g>
        </g>
      </g>
    </g>
  </g>
</svg>
