<svg xmlns="http://www.w3.org/2000/svg" width="13.497" height="17.107" viewBox="0 0 13.497 17.107">
  <defs>
    <style>
      .cls-1 {
        fill: #fff;
        stroke: #fff;
        stroke-width: 0.3px;
      }
    </style>
  </defs>
  <g id="bean" transform="translate(-0.35 0.15)">
    <path id="Path_751" data-name="Path 751" class="cls-1" d="M57.8,275.951a1.877,1.877,0,0,0,1.324.541h.018a1.891,1.891,0,0,0,1.307-3.241l-1.15-1.129a1.878,1.878,0,0,0-1.324-.541h-.018a1.89,1.89,0,0,0-1.3,3.239Zm.162-3.81h.013a1.323,1.323,0,0,1,.932.381l1.15,1.128a1.333,1.333,0,0,1,.306,1.437,2.353,2.353,0,0,0-1.776-1.412,1.773,1.773,0,0,1-1.356-1.081l-.069-.168a1.317,1.317,0,0,1,.8-.284Zm-1.194.781a2.325,2.325,0,0,0,1.726,1.307,1.793,1.793,0,0,1,1.423,1.274l.037.13a1.317,1.317,0,0,1-.819.3h-.013a1.32,1.32,0,0,1-.931-.38l-1.15-1.128a1.33,1.33,0,0,1-.274-1.5Zm0,0" transform="translate(-53.766 -262.667)"/>
    <path id="Path_752" data-name="Path 752" class="cls-1" d="M231.855,196.266h.56v.56h-.56Zm0,0" transform="translate(-223.761 -189.823)"/>
    <path id="Path_753" data-name="Path 753" class="cls-1" d="M197.723,196.266h.56v.56h-.56Zm0,0" transform="translate(-190.749 -189.823)"/>
    <path id="Path_754" data-name="Path 754" class="cls-1" d="M163.59,196.266h.56v.56h-.56Zm0,0" transform="translate(-157.736 -189.823)"/>
    <path id="Path_755" data-name="Path 755" class="cls-1" d="M11.736,0h-9.8a.28.28,0,0,0-.28.28v1.1L.536,7.795a.262.262,0,0,0,0,.048L.5,14.883a1.971,1.971,0,0,0,1.961,1.923H13.416a.277.277,0,0,0,.112-.024c.008,0,.014-.01.021-.014a.268.268,0,0,0,.071-.053l.008-.006a.288.288,0,0,0,.019-.034.278.278,0,0,0,.028-.052,1.24,1.24,0,0,1,.021-.1V8.059a1.862,1.862,0,0,0-.059-.471l-.994-5.815A1.116,1.116,0,0,0,11.736,0Zm0,.56a.56.56,0,1,1-.56.56A.56.56,0,0,1,11.736.56ZM7.254.56h3.517a1.11,1.11,0,0,0-.156.56H7.254ZM5.573.56h1.12v.56H5.573Zm0,1.12h1.12V3.533l-.472-.157a.279.279,0,0,0-.177,0l-.472.157ZM2.212.56h2.8v.56h-2.8Zm7,15.686H2.46a1.408,1.408,0,0,1-1.371-1.12H9.215Zm0-1.681H1.062l.03-6.443H9.215Zm.044-7H1.144L2.167,1.68H5.013V3.921a.28.28,0,0,0,.369.266l.752-.252.752.252a.283.283,0,0,0,.088.014.28.28,0,0,0,.28-.28V1.68h3.028Zm.516.3,1.059-6.088a1.125,1.125,0,0,0,.342.306V14.718l-1.4,1.2Zm.476,8.379,1.2-1.032,1.2,1.032ZM13.091,7.7a1.411,1.411,0,0,1,.045.354v7.859l-1.4-1.2V2.241a1.112,1.112,0,0,0,.406-.079Zm0,0" transform="translate(0 0)"/>
  </g>
</svg>
