<svg xmlns="http://www.w3.org/2000/svg" width="29.248" height="28.878" viewBox="0 0 29.248 28.878">
  <g id="Group_838" data-name="Group 838" transform="translate(-14264 -1158)">
    <g id="Group_733" data-name="Group 733" transform="translate(12841.752 1027.781)">
      <g id="reuse" transform="translate(1422.248 130.219)">
        <path id="Path_724" data-name="Path 724" d="M2.074,14.382A12.042,12.042,0,0,1,9.83,5.177L9.642,5.5a.945.945,0,1,0,1.637.946l1.3-2.256A.945.945,0,0,0,12.237,2.9L9.98,1.6a.945.945,0,1,0-.946,1.637l.235.136A13.89,13.89,0,0,0,.836,21.214a.945.945,0,0,0,1.776-.648A11.986,11.986,0,0,1,2.074,14.382Z" transform="translate(0 -1.469)" fill="#fff"/>
        <path id="Path_725" data-name="Path 725" d="M45.391,179.153a.945.945,0,0,0-1.332.115,11.992,11.992,0,0,1-16.8,1.557h.3a.945.945,0,1,0,0-1.891H25.045a.944.944,0,0,0-1.029.846v0h0c0,.027,0,.054,0,.082,0,0,0,.009,0,.014v2.605a.945.945,0,0,0,.945.946h0a.945.945,0,0,0,.945-.945v-.329a13.889,13.889,0,0,0,19.605-1.671A.945.945,0,0,0,45.391,179.153Z" transform="translate(-20.984 -156.563)" fill="#fff"/>
        <path id="Path_726" data-name="Path 726" d="M134.429,28.3a.945.945,0,0,0-1.291-.346l-.311.179c.013-.067.028-.133.04-.2A13.884,13.884,0,0,0,121.6,11.854a.945.945,0,0,0-.328,1.862,11.993,11.993,0,0,1,9.732,13.875l-.139-.24a.945.945,0,1,0-1.637.945l1.3,2.257a.945.945,0,0,0,1.291.346l2.257-1.3A.945.945,0,0,0,134.429,28.3Z" transform="translate(-105.307 -10.532)" fill="#fff"/>
      </g>
    </g>
    <g id="loading" transform="translate(14271 1165)">
      <path id="Path_700" data-name="Path 700" d="M224.7,2.669a.684.684,0,0,1-.7-.7V.7a.7.7,0,0,1,1.392,0V1.973A.7.7,0,0,1,224.7,2.669Z" transform="translate(-217.502)" fill="#fff"/>
      <path id="Path_701" data-name="Path 701" d="M224.7,406.669a.684.684,0,0,1-.7-.7V404.7a.7.7,0,0,1,1.392,0v1.276A.684.684,0,0,1,224.7,406.669Z" transform="translate(-217.502 -392.281)" fill="#fff"/>
      <path id="Path_702" data-name="Path 702" d="M113.464,33.024a.7.7,0,0,1-.6-.348l-.627-1.091a.7.7,0,0,1,1.207-.7l.627,1.091a.711.711,0,0,1-.255.951A.86.86,0,0,1,113.464,33.024Z" transform="translate(-108.893 -29.66)" fill="#fff"/>
      <path id="Path_703" data-name="Path 703" d="M315.864,382.624a.7.7,0,0,1-.6-.348l-.627-1.091a.7.7,0,0,1,1.207-.7l.627,1.091a.711.711,0,0,1-.255.952A.656.656,0,0,1,315.864,382.624Z" transform="translate(-305.421 -369.118)" fill="#fff"/>
      <path id="Path_704" data-name="Path 704" d="M32.328,114.16a.655.655,0,0,1-.348-.093l-1.091-.627a.7.7,0,0,1,.7-1.207l1.091.627a.711.711,0,0,1,.255.951A.7.7,0,0,1,32.328,114.16Z" transform="translate(-29.66 -108.893)" fill="#fff"/>
      <path id="Path_705" data-name="Path 705" d="M381.951,316.56a.655.655,0,0,1-.348-.093l-1.114-.627a.7.7,0,0,1,.7-1.207l1.091.627a.711.711,0,0,1,.255.951A.638.638,0,0,1,381.951,316.56Z" transform="translate(-369.118 -305.421)" fill="#fff"/>
      <path id="Path_706" data-name="Path 706" d="M1.973,225.392H.7A.7.7,0,0,1,.7,224H1.973a.684.684,0,0,1,.7.7A.7.7,0,0,1,1.973,225.392Z" transform="translate(0 -217.502)" fill="#fff"/>
      <path id="Path_707" data-name="Path 707" d="M405.973,225.392H404.7a.7.7,0,0,1,0-1.392h1.276a.7.7,0,0,1,0,1.392Z" transform="translate(-392.281 -217.502)" fill="#fff"/>
      <path id="Path_708" data-name="Path 708" d="M30.438,316.56a.7.7,0,0,1-.6-.348.711.711,0,0,1,.255-.951l1.091-.627a.7.7,0,0,1,.7,1.207l-1.091.627A.559.559,0,0,1,30.438,316.56Z" transform="translate(-28.883 -305.421)" fill="#fff"/>
      <path id="Path_709" data-name="Path 709" d="M380.838,114.16a.7.7,0,0,1-.6-.348.711.711,0,0,1,.255-.951l1.091-.627a.7.7,0,1,1,.7,1.207l-1.091.627A.655.655,0,0,1,380.838,114.16Z" transform="translate(-369.118 -108.893)" fill="#fff"/>
      <path id="Path_710" data-name="Path 710" d="M112.838,382.624a.655.655,0,0,1-.348-.093.71.71,0,0,1-.255-.951l.627-1.091a.7.7,0,0,1,1.207.7l-.627,1.091A.7.7,0,0,1,112.838,382.624Z" transform="translate(-108.893 -369.118)" fill="#fff"/>
      <path id="Path_711" data-name="Path 711" d="M315.238,33.024a.655.655,0,0,1-.348-.093.711.711,0,0,1-.255-.951l.627-1.091a.7.7,0,1,1,1.207.7l-.627,1.091A.754.754,0,0,1,315.238,33.024Z" transform="translate(-305.421 -29.66)" fill="#fff"/>
    </g>
  </g>
</svg>
