<svg xmlns="http://www.w3.org/2000/svg" width="20.078" height="20.078" viewBox="0 0 20.078 20.078">
  <defs>
    <style>
      .cls-1 {
        fill: #fff;
      }
    </style>
  </defs>
  <g id="delete-button" transform="translate(0)">
    <path id="Path_748" data-name="Path 748" class="cls-1" d="M10.039,0A10.039,10.039,0,1,0,20.078,10.039,10.05,10.05,0,0,0,10.039,0Zm0,18.357a8.318,8.318,0,1,1,8.318-8.318A8.327,8.327,0,0,1,10.039,18.357Z" transform="translate(0 0)"/>
    <path id="Path_749" data-name="Path 749" class="cls-1" d="M59.242,51.478a.86.86,0,0,0-1.217,0l-2.668,2.668L52.69,51.478A.86.86,0,0,0,51.473,52.7l2.668,2.668-2.668,2.668a.86.86,0,1,0,1.217,1.217l2.668-2.668,2.668,2.668a.86.86,0,0,0,1.217-1.217l-2.668-2.668L59.242,52.7A.86.86,0,0,0,59.242,51.478Z" transform="translate(-45.319 -45.323)"/>
  </g>
</svg>
