<svg id="fast-food" xmlns="http://www.w3.org/2000/svg" width="40" height="40" viewBox="0 0 40 40">
  <defs>
    <style>
      .cls-1 {
        fill: #fff;
      }
    </style>
  </defs>
  <path id="Path_612" data-name="Path 612" class="cls-1" d="M29.658,167.942a3.517,3.517,0,0,1-1.772-3.051,9.777,9.777,0,0,1,9.766-9.766h4.024l.19-3.125h-22.8L20.7,179.024a1.172,1.172,0,0,0,1.17,1.1h7.191a5.829,5.829,0,0,1-1.175-3.516,3.522,3.522,0,0,1,2.322-3.307,4.671,4.671,0,0,1,0-5.108C29.827,168.109,29.615,168.024,29.658,167.942Zm0,0" transform="translate(-17.573 -140.125)"/>
  <path id="Path_613" data-name="Path 613" class="cls-1" d="M12.889,9.532h11.72a1.172,1.172,0,1,0,0-2.344H15.054l3.159-4.844h4.053a1.172,1.172,0,0,0,0-2.344H17.578A1.171,1.171,0,0,0,16.6.532L12.256,7.188H1.172a1.172,1.172,0,0,0,0,2.344H12.889Zm0,0"/>
  <path id="Path_614" data-name="Path 614" class="cls-1" d="M162,229.422a1.172,1.172,0,0,0,1.172,1.172h25a1.172,1.172,0,0,0,1.172-1.172A7.43,7.43,0,0,0,181.922,222h-12.5A7.43,7.43,0,0,0,162,229.422Zm0,0" transform="translate(-149.344 -204.656)"/>
  <path id="Path_615" data-name="Path 615" class="cls-1" d="M184.344,362a2.344,2.344,0,1,0,0,4.687h19.531a2.344,2.344,0,1,0,0-4.687Zm0,0" transform="translate(-167.781 -333.719)"/>
  <path id="Path_616" data-name="Path 616" class="cls-1" d="M188.172,452h-25A1.172,1.172,0,0,0,162,453.172a3.52,3.52,0,0,0,3.516,3.516h20.313a3.52,3.52,0,0,0,3.516-3.516A1.172,1.172,0,0,0,188.172,452Zm0,0" transform="translate(-149.344 -416.688)"/>
</svg>
