<svg id="settings" xmlns="http://www.w3.org/2000/svg" width="39.771" height="39.771" viewBox="0 0 39.771 39.771">
  <defs>
    <style>
      .cls-1 {
        fill: #fff;
      }
    </style>
  </defs>
  <path id="Path_663" data-name="Path 663" class="cls-1" d="M24.629,18a6.629,6.629,0,1,0,6.629,6.629A6.637,6.637,0,0,0,24.629,18Z" transform="translate(-4.743 -4.743)"/>
  <path id="Path_664" data-name="Path 664" class="cls-1" d="M37.724,15.467H36.238a16.823,16.823,0,0,0-1.665-4.019l1.05-1.05a2.049,2.049,0,0,0,0-2.9L32.27,4.147a2.1,2.1,0,0,0-2.9,0L28.323,5.2A16.834,16.834,0,0,0,24.3,3.534V2.047A2.05,2.05,0,0,0,22.257,0H17.514a2.05,2.05,0,0,0-2.047,2.047V3.534A16.824,16.824,0,0,0,11.448,5.2L10.4,4.148a2.1,2.1,0,0,0-2.9,0L4.147,7.5a2.049,2.049,0,0,0,0,2.9l1.05,1.05a16.8,16.8,0,0,0-1.664,4.018H2.047A2.05,2.05,0,0,0,0,17.514v4.742A2.051,2.051,0,0,0,2.047,24.3H3.534A16.824,16.824,0,0,0,5.2,28.324l-1.05,1.05a2.049,2.049,0,0,0,0,2.9L7.5,35.624a2.1,2.1,0,0,0,2.9,0l1.05-1.05a16.854,16.854,0,0,0,4.019,1.665v1.486a2.049,2.049,0,0,0,2.047,2.047h4.742A2.05,2.05,0,0,0,24.3,37.723V36.238a16.824,16.824,0,0,0,4.019-1.665l1.05,1.05a2.1,2.1,0,0,0,2.9,0l3.353-3.353a2.049,2.049,0,0,0,0-2.9l-1.05-1.05A16.854,16.854,0,0,0,36.238,24.3h1.486a2.05,2.05,0,0,0,2.047-2.048V17.514A2.05,2.05,0,0,0,37.724,15.467Zm-9,4.419a8.838,8.838,0,1,1-8.838-8.838A8.848,8.848,0,0,1,28.724,19.886Z" transform="translate(0 0)"/>
</svg>
