<svg xmlns="http://www.w3.org/2000/svg" width="339" height="79" viewBox="0 0 339 79">
  <g id="Group_678" data-name="Group 678" transform="translate(-31 -0.5)">
    <path id="Path_381" data-name="Path 381" d="M349.924,805.276v-40h8.028v34.2h9.59v5.8H349.924Zm-25.126,0v-40h17.078v5.8h-9.05v10.543h6.982v5.8h-6.982v12.048h9.05v5.8H324.8Zm-25.083,0v-40h17.078v5.8h-9.05v10.543h7.53v5.8h-7.53v17.851Zm-22.626-13.943,2.272-14.882,2.271,14.882Zm14.682,13.943-8.11-40h-8.6l-8.11,40h8.028l1.277-8.651h6.068l1.42,8.651Zm-47.156,0V771.435h-6.366v-6.159h20.761v6.159h-6.367v33.841Z" transform="translate(-175.922 -745.276)" fill="#fff" fill-rule="evenodd"/>
    <path id="Path_388" data-name="Path 388" d="M129.951,735.879h.519l.139-.357.693,0,.148.361h.321l.148-.361.693,0,.139.357h.519v-1.1h-.519l-.139.357-.693,0-.148-.361h-.321l-.148.361-.693,0-.139-.357h-.519v1.1Zm15.223-7.04a5.448,5.448,0,0,1,4.973,5.088h.682v1H138.493v-1h.78a5.448,5.448,0,0,1,4.973-5.088c0-.007,0-.013,0-.02a.464.464,0,1,1,.929,0C145.174,728.826,145.174,728.832,145.174,728.839Zm-9.736,23.622-1.064,14.109-.019.478c1.193.39,1.171,1.279,1.171,1.279h-8.483s-.022-.889,1.171-1.279l-.018-.478-1.064-14.113h-.681l-.423-6.369h-.785A1.246,1.246,0,0,1,124,744.846v-8.122a1.245,1.245,0,0,1,1.242-1.242h.487q.122,0,.255,0h.857v.017c1.98.033,2.59-.017,2.59-.017l2.034,7.269h-3.509v7.888h4.75v-7.888h-.764l0-.028,1.93-7.2h1.889v-.005h1.616a1.087,1.087,0,0,1,.734.285l2.72,3.514a.471.471,0,0,0,.759-.087c.3-.43,1.34-2.36,1.621-2.883a1.175,1.175,0,1,1,2.044,1.113l-2.711,5.693s-.824,1.93-2.753-.022c-1.327-1.341-1.813-1.689-2.043-1.282l-1.568,10.609Zm-3.828-24.134a3.154,3.154,0,1,1-3.155,3.155A3.155,3.155,0,0,1,131.61,728.327Z" transform="translate(-93 -708.327)" fill="#fff" fill-rule="evenodd"/>
    <line id="Line_3" data-name="Line 3" y2="79" transform="translate(201.5 0.5)" fill="none" stroke="#fff" stroke-width="1" opacity="0.5"/>
    <g id="Group_546" data-name="Group 546" transform="translate(-1 1)">
      <rect id="Rectangle_1495" data-name="Rectangle 1495" width="159" height="40" rx="5" transform="translate(212 19)" fill="#fff"/>
      <g id="Group_545" data-name="Group 545" transform="translate(214.424 21.424)">
        <g id="Group_543" data-name="Group 543" transform="translate(0 0)">
          <path id="Path_553" data-name="Path 553" d="M179.481,2674.8a7.381,7.381,0,0,1-2.285,1.024,9.722,9.722,0,0,1-2.727.447,8.9,8.9,0,0,1-6.895-2.745,10.484,10.484,0,0,1-2.526-7.393,10.292,10.292,0,0,1,2.607-7.25,8.908,8.908,0,0,1,6.89-2.834,11.154,11.154,0,0,1,2.761.3,6.885,6.885,0,0,1,2.174.983v4.193a7.227,7.227,0,0,0-2.187-1.35,6.47,6.47,0,0,0-2.4-.471,5.56,5.56,0,0,0-4.3,1.758,6.642,6.642,0,0,0-1.612,4.672,7.123,7.123,0,0,0,1.475,4.739,5.037,5.037,0,0,0,4.061,1.744,6.964,6.964,0,0,0,2.752-.515,6.5,6.5,0,0,0,2.209-1.594Z" transform="translate(-165.049 -2654.635)"/>
          <path id="Path_554" data-name="Path 554" d="M286.3,2708.889l-7.07,19.321H275.24l2.649-7-4.785-12.324H277.1l2.628,8.139,2.6-8.139Z" transform="translate(-258.427 -2700.297)"/>
          <path id="Path_555" data-name="Path 555" d="M390.314,2660.525a7.283,7.283,0,0,1-1.6,4.851,5.213,5.213,0,0,1-4.2,1.9,4.255,4.255,0,0,1-2.084-.49,2.986,2.986,0,0,1-1.307-1.366v1.444h-3.6v-21.224h3.6v10.029a3.748,3.748,0,0,1,1.415-1.375,4.047,4.047,0,0,1,1.977-.473,5.234,5.234,0,0,1,4.2,1.878,7.214,7.214,0,0,1,1.6,4.832m-3.653,0a3.981,3.981,0,0,0-.78-2.508,2.393,2.393,0,0,0-1.972-1.013,2.428,2.428,0,0,0-1.985,1.013,3.941,3.941,0,0,0-.793,2.508,4,4,0,0,0,.8,2.531,2.427,2.427,0,0,0,1.981,1.024,2.39,2.39,0,0,0,1.968-1.024A4.032,4.032,0,0,0,386.661,2660.525Z" transform="translate(-348.668 -2645.635)"/>
          <path id="Path_556" data-name="Path 556" d="M489.62,2712.576c0,.308,0,.54,0,.689a2.4,2.4,0,0,1-.047.417H480.9a3.79,3.79,0,0,0,1.029,1.954,2.437,2.437,0,0,0,1.745.746,2.82,2.82,0,0,0,1.527-.428,2.65,2.65,0,0,0,1.02-1.166l2.9,1.444a5.3,5.3,0,0,1-2.178,2.285,6.782,6.782,0,0,1-3.37.8,5.855,5.855,0,0,1-4.519-1.852,6.944,6.944,0,0,1-1.7-4.894,6.818,6.818,0,0,1,1.771-4.776,6,6,0,0,1,8.789-.034,6.915,6.915,0,0,1,1.711,4.816m-3.577-1.107a3.8,3.8,0,0,0-.921-1.959,2.252,2.252,0,0,0-3.307.012,3.734,3.734,0,0,0-.917,1.948Z" transform="translate(-434.931 -2697.681)"/>
          <path id="Path_557" data-name="Path 557" d="M587.847,2706.067l-.638,3.731a3.189,3.189,0,0,0-.635-.255,2.333,2.333,0,0,0-.622-.08,2.552,2.552,0,0,0-2.2.972,5.075,5.075,0,0,0-.717,2.992v5.477h-3.6v-12.632h3.6v2.65a4.847,4.847,0,0,1,1.313-2.379,3.637,3.637,0,0,1,2.392-.682,3.218,3.218,0,0,1,.579.056,2.548,2.548,0,0,1,.527.15" transform="translate(-523.151 -2697.681)"/>
          <path id="Path_558" data-name="Path 558" d="M707.227,2662.428h-3.653v16.053h-3.782v-16.053h-3.653v-3.344h11.088Z" transform="translate(-624.003 -2657.258)"/>
          <path id="Path_559" data-name="Path 559" d="M787.407,2712.571a6.657,6.657,0,0,1-1.865,4.8,6.237,6.237,0,0,1-4.7,1.942,6.315,6.315,0,0,1-4.724-1.934,7.09,7.09,0,0,1-.013-9.618,6.366,6.366,0,0,1,4.738-1.9,6.258,6.258,0,0,1,4.7,1.93,6.6,6.6,0,0,1,1.865,4.78m-3.653,0a3.769,3.769,0,0,0-.849-2.515,2.715,2.715,0,0,0-4.2-.019,3.838,3.838,0,0,0-.815,2.534,3.876,3.876,0,0,0,.823,2.561,2.774,2.774,0,0,0,4.245.012A3.943,3.943,0,0,0,783.754,2712.571Z" transform="translate(-691.492 -2697.681)"/>
          <path id="Path_560" data-name="Path 560" d="M890.537,2708.889l-4.485,12.632h-3.567l-2.136-7.559-2.135,7.559h-3.581l-4.5-12.632h3.984l2.289,8.186,2.135-8.186h3.577l2.135,8.186,2.29-8.186Z" transform="translate(-774.367 -2700.297)"/>
          <path id="Path_561" data-name="Path 561" d="M1031.754,2712.576c0,.308,0,.54,0,.689a2.408,2.408,0,0,1-.047.417h-8.669a3.789,3.789,0,0,0,1.029,1.954,2.435,2.435,0,0,0,1.745.746,2.82,2.82,0,0,0,1.527-.428,2.651,2.651,0,0,0,1.02-1.166l2.9,1.444a5.3,5.3,0,0,1-2.178,2.285,6.781,6.781,0,0,1-3.37.8,5.854,5.854,0,0,1-4.519-1.852,6.943,6.943,0,0,1-1.7-4.894,6.818,6.818,0,0,1,1.771-4.776,6,6,0,0,1,8.789-.034,6.913,6.913,0,0,1,1.711,4.816m-3.577-1.107a3.8,3.8,0,0,0-.921-1.959,2.252,2.252,0,0,0-3.307.012,3.731,3.731,0,0,0-.917,1.948Z" transform="translate(-903.428 -2697.681)"/>
          <path id="Path_562" data-name="Path 562" d="M1129.984,2706.067l-.639,3.731a3.212,3.212,0,0,0-.635-.255,2.326,2.326,0,0,0-.621-.08,2.55,2.55,0,0,0-2.2.972,5.077,5.077,0,0,0-.717,2.992v5.477h-3.6v-12.632h3.6v2.65a4.839,4.839,0,0,1,1.313-2.379,3.635,3.635,0,0,1,2.392-.682,3.218,3.218,0,0,1,.579.056,2.572,2.572,0,0,1,.528.15" transform="translate(-991.651 -2697.681)"/>
          <path id="Path_563" data-name="Path 563" d="M1186.417,2715.611a2.494,2.494,0,0,0,.968.8,2.9,2.9,0,0,0,1.313.333,1.988,1.988,0,0,0,1.187-.312,1,1,0,0,0,.434-.845,1.237,1.237,0,0,0-.541-1,7.262,7.262,0,0,0-1.775-.879,6.04,6.04,0,0,1-2.517-1.564,3.617,3.617,0,0,1-.75-2.394,3.439,3.439,0,0,1,1.311-2.834,5.632,5.632,0,0,1,3.606-1.051,5.722,5.722,0,0,1,2.131.374,4.166,4.166,0,0,1,1.6,1.087l-1.681,2.037a3.333,3.333,0,0,0-.982-.719,2.6,2.6,0,0,0-1.068-.206,1.966,1.966,0,0,0-1.153.294.894.894,0,0,0-.415.76,1.373,1.373,0,0,0,.528,1.1,5.623,5.623,0,0,0,1.761.852,5.568,5.568,0,0,1,2.521,1.545,3.445,3.445,0,0,1,.875,2.337,3.53,3.53,0,0,1-1.346,2.923,5.827,5.827,0,0,1-3.721,1.069,6.669,6.669,0,0,1-2.628-.5,4.011,4.011,0,0,1-1.771-1.358Z" transform="translate(-1045.859 -2697.681)"/>
        </g>
        <g id="Group_544" data-name="Group 544" transform="translate(20.924 22.367)">
          <path id="Path_564" data-name="Path 564" d="M323.4,2810.313H452.112l-4.308,11.308H319.1Z" transform="translate(-319.096 -2810.313)" fill="#000004" fill-rule="evenodd"/>
          <path id="Path_565" data-name="Path 565" d="M388.892,2829.261a2.148,2.148,0,0,1-.676,1.715,2.951,2.951,0,0,1-1.987.586h-1.66v-7.7h1.474a2.845,2.845,0,0,1,1.839.493,1.893,1.893,0,0,1,.591,1.538,1.666,1.666,0,0,1-.3,1.031,1.336,1.336,0,0,1-.835.514,1.646,1.646,0,0,1,1.1.585,1.808,1.808,0,0,1,.459,1.239m-1.746-3.255a.794.794,0,0,0-.258-.669,1.4,1.4,0,0,0-.845-.2h-.074v1.767h.074a1.27,1.27,0,0,0,.82-.23A.817.817,0,0,0,387.146,2826.006Zm.318,3.175a1.013,1.013,0,0,0-.294-.78,1.19,1.19,0,0,0-.843-.272h-.357v2.156h.357a1.189,1.189,0,0,0,.853-.273A1.109,1.109,0,0,0,387.463,2829.181Z" transform="translate(-375.676 -2822.02)" fill="#fff"/>
          <path id="Path_566" data-name="Path 566" d="M442.572,2831.562h-3.1v-7.7h1.372v6.374h1.727Z" transform="translate(-423.121 -2822.02)" fill="#fff"/>
          <path id="Path_567" data-name="Path 567" d="M486.715,2831.562h-1.531l-.461-1.706h-2.415l-.465,1.706h-1.532l2.39-7.7h1.631Zm-2.315-2.931-.888-3.278-.884,3.278Z" transform="translate(-458.414 -2822.02)" fill="#fff"/>
          <path id="Path_568" data-name="Path 568" d="M549.085,2830.1a2.587,2.587,0,0,1-.828.406,3.3,3.3,0,0,1-.99.177,3.1,3.1,0,0,1-2.5-1.089,4.411,4.411,0,0,1-.917-2.935,4.319,4.319,0,0,1,.946-2.878,3.105,3.105,0,0,1,2.5-1.125,3.748,3.748,0,0,1,1,.119,2.439,2.439,0,0,1,.788.389v1.666a2.626,2.626,0,0,0-.794-.537,2.187,2.187,0,0,0-.869-.186,1.936,1.936,0,0,0-1.561.7,2.794,2.794,0,0,0-.585,1.855,3.012,3.012,0,0,0,.536,1.882,1.759,1.759,0,0,0,1.473.691,2.332,2.332,0,0,0,1-.2,2.386,2.386,0,0,0,.8-.634Z" transform="translate(-513.321 -2820.981)" fill="#fff"/>
          <path id="Path_569" data-name="Path 569" d="M610.178,2831.562h-1.663l-2.352-4.025v4.025h-1.372v-7.7h1.372v3.5l2.334-3.5h1.6l-2.5,3.523Z" transform="translate(-565.986 -2822.02)" fill="#fff"/>
          <path id="Path_570" data-name="Path 570" d="M705.373,2829.261a2.147,2.147,0,0,1-.676,1.715,2.949,2.949,0,0,1-1.986.586h-1.66v-7.7h1.473a2.848,2.848,0,0,1,1.839.493,1.9,1.9,0,0,1,.59,1.538,1.665,1.665,0,0,1-.3,1.031,1.334,1.334,0,0,1-.835.514,1.646,1.646,0,0,1,1.1.585,1.808,1.808,0,0,1,.459,1.239m-1.746-3.255a.794.794,0,0,0-.258-.669,1.4,1.4,0,0,0-.845-.2h-.074v1.767h.074a1.274,1.274,0,0,0,.82-.23A.817.817,0,0,0,703.627,2826.006Zm.317,3.175a1.009,1.009,0,0,0-.294-.78,1.191,1.191,0,0,0-.843-.272h-.357v2.156h.357a1.189,1.189,0,0,0,.853-.273A1.11,1.11,0,0,0,703.945,2829.181Z" transform="translate(-649.172 -2822.02)" fill="#fff"/>
          <path id="Path_571" data-name="Path 571" d="M760.132,2826.671a4.208,4.208,0,0,1-1,2.867,3.227,3.227,0,0,1-4.936,0,4.626,4.626,0,0,1,0-5.733,3.23,3.23,0,0,1,4.936,0,4.217,4.217,0,0,1,1,2.866m-1.419,0a2.825,2.825,0,0,0-.568-1.824,1.895,1.895,0,0,0-2.953,0,3.216,3.216,0,0,0,0,3.65,1.893,1.893,0,0,0,2.953,0A2.827,2.827,0,0,0,758.713,2826.671Z" transform="translate(-694.242 -2820.981)" fill="#fff"/>
          <path id="Path_572" data-name="Path 572" d="M826.757,2831.562h-1.531l-.461-1.706H822.35l-.465,1.706h-1.533l2.39-7.7h1.631Zm-2.315-2.931-.889-3.278-.883,3.278Z" transform="translate(-752.269 -2822.02)" fill="#fff"/>
          <path id="Path_573" data-name="Path 573" d="M892.836,2831.562H891.19l-1.658-3.514v3.514h-1.372v-7.7h1.9a2.65,2.65,0,0,1,1.808.549,2.022,2.022,0,0,1,.618,1.6,2.294,2.294,0,0,1-.411,1.428,1.512,1.512,0,0,1-1.076.613Zm-1.783-5.421a1,1,0,0,0-.3-.8,1.389,1.389,0,0,0-.917-.253h-.309v2.083h.309a1.394,1.394,0,0,0,.912-.251A.955.955,0,0,0,891.053,2826.14Z" transform="translate(-810.866 -2822.02)" fill="#fff"/>
          <path id="Path_574" data-name="Path 574" d="M948,2827.721a3.861,3.861,0,0,1-.993,2.832,3.713,3.713,0,0,1-2.777,1.009h-1.515v-7.7h1.406a3.92,3.92,0,0,1,2.877.991,3.858,3.858,0,0,1,1,2.869m-1.428-.011a2.786,2.786,0,0,0-.565-1.856,1.96,1.96,0,0,0-1.581-.665h-.338v5.045h.338a1.968,1.968,0,0,0,1.578-.66A2.777,2.777,0,0,0,946.572,2827.71Z" transform="translate(-858.011 -2822.02)" fill="#fff"/>
          <path id="Path_575" data-name="Path 575" d="M1043.927,2830.1a2.59,2.59,0,0,1-.829.406,3.3,3.3,0,0,1-.99.177,3.1,3.1,0,0,1-2.5-1.089,4.408,4.408,0,0,1-.917-2.935,4.321,4.321,0,0,1,.946-2.878,3.105,3.105,0,0,1,2.5-1.125,3.744,3.744,0,0,1,1,.119,2.444,2.444,0,0,1,.789.389v1.666a2.639,2.639,0,0,0-.794-.537,2.191,2.191,0,0,0-.87-.186,1.935,1.935,0,0,0-1.561.7,2.8,2.8,0,0,0-.585,1.855,3.01,3.01,0,0,0,.535,1.882,1.759,1.759,0,0,0,1.474.691,2.334,2.334,0,0,0,1-.2,2.4,2.4,0,0,0,.8-.634Z" transform="translate(-940.95 -2820.981)" fill="#fff"/>
          <path id="Path_576" data-name="Path 576" d="M1101.565,2831.562h-1.532l-.46-1.706h-2.415l-.465,1.706h-1.533l2.39-7.7h1.63Zm-2.316-2.931-.888-3.278-.884,3.278Z" transform="translate(-989.751 -2822.02)" fill="#fff"/>
          <path id="Path_577" data-name="Path 577" d="M1166.747,2828.313h-2.063v3.249h-1.372v-7.7h3.435v1.329h-2.063v1.8h2.063Z" transform="translate(-1048.646 -2822.02)" fill="#fff"/>
          <path id="Path_578" data-name="Path 578" d="M1215.194,2831.562h-3.528v-7.7h3.528v1.329h-2.129v1.8h2.129v1.328h-2.129v1.921h2.129Z" transform="translate(-1090.432 -2822.02)" fill="#fff"/>
        </g>
      </g>
    </g>
  </g>
</svg>
