<svg xmlns="http://www.w3.org/2000/svg" width="202.162" height="62.293" viewBox="0 0 202.162 62.293">
  <g id="tafelLogo" transform="translate(-9.3 -14.4)">
    <path id="Path_382" data-name="Path 382" d="M264.2,101.658V51.3h10.091V94.349h12.064v7.31H264.2Zm-31.632,0V51.3h21.508v7.31H242.688V71.87h8.8v7.31h-8.8V94.349h11.385v7.31H232.564Zm-31.6,0V51.3h21.508v7.31H211.088V71.87h9.477v7.31h-9.477v22.479ZM172.5,84.1l2.846-18.727L178.2,84.1Zm18.468,17.562L180.783,51.3h-10.8l-10.253,50.358h10.091l1.617-10.9h7.633l1.779,10.9Zm-59.35,0v-42.6H123.6V51.3h26.133v7.762h-8.021v42.6Z" transform="translate(-74.889 -24.965)" fill="#470026" fill-rule="evenodd"/>
    <g id="Group_396" data-name="Group 396" transform="translate(9.3 14.4)">
      <path id="Path_383" data-name="Path 383" d="M18.583,26.141h.809l.226-.55h1.067l.226.55h.517l.226-.55h1.067l.226.55h.809V24.459h-.809l-.226.55H21.655l-.226-.55h-.517l-.226.55H19.617l-.226-.55h-.809v1.682Zm23.74-10.964a8.471,8.471,0,0,1,7.73,7.924H51.12v1.585H31.908V23.1h1.229a8.471,8.471,0,0,1,7.73-7.924v-.032a.718.718,0,0,1,.712-.712.732.732,0,0,1,.744.744ZM27.153,51.983,25.5,73.944l-.032.744c1.844.615,1.811,2.005,1.811,2.005H14.054s-.032-1.391,1.811-2.005l-.032-.744-1.65-21.993H13.117l-.647-9.929H11.241A1.946,1.946,0,0,1,9.3,40.081V27.467a1.946,1.946,0,0,1,1.941-1.941H13.7v.032c3.073.065,4.043-.032,4.043-.032l3.17,11.32H15.478v12.29h7.407V36.846h-1.2v-.032L24.7,25.591h5.466a1.561,1.561,0,0,1,1.132.453L35.53,31.51a.745.745,0,0,0,1.2-.129c.453-.679,2.1-3.687,2.523-4.5a1.844,1.844,0,0,1,3.558.679,1.861,1.861,0,0,1-.356,1.1l-4.237,8.83s-1.294,3.008-4.3-.032c-2.07-2.1-2.814-2.62-3.17-2.005L28.285,51.983ZM21.17,14.4a4.916,4.916,0,1,1-4.916,4.916A4.914,4.914,0,0,1,21.17,14.4Z" transform="translate(-9.3 -14.4)" fill="#470026" fill-rule="evenodd"/>
    </g>
  </g>
</svg>
