<svg id="refund" xmlns="http://www.w3.org/2000/svg" width="45.267" height="39.771" viewBox="0 0 45.267 39.771">
  <defs>
    <style>
      .cls-1, .cls-2 {
        fill: #fff;
      }

      .cls-2 {
        stroke: #fff;
      }
    </style>
  </defs>
  <g id="Group_675" data-name="Group 675" transform="translate(0)">
    <g id="Group_672" data-name="Group 672" transform="translate(0 13.287)">
      <g id="Group_671" data-name="Group 671" transform="translate(0)">
        <path id="Path_666" data-name="Path 666" class="cls-1" d="M38.635,197.236a3.97,3.97,0,0,1-3.31-1.772l-1.736-2.6a12.165,12.165,0,0,1-8.568,6.787c-.03.005-.058.012-.087.019a12.047,12.047,0,0,1-13.645-7.736h.646a1.327,1.327,0,0,0,1.1-2.062l-5.3-7.956a1.376,1.376,0,0,0-2.207,0l-5.3,7.957a1.327,1.327,0,0,0,1.1,2.062H3.053a20.032,20.032,0,0,0,34.15,9.654,20.311,20.311,0,0,0,3.335-4.837A3.972,3.972,0,0,1,38.635,197.236Z" transform="translate(0 -181.36)"/>
      </g>
    </g>
    <g id="Group_674" data-name="Group 674" transform="translate(4.752)">
      <g id="Group_673" data-name="Group 673" transform="translate(0 0)">
        <path id="Path_667" data-name="Path 667" class="cls-1" d="M92.939,46.977H91.216a19.964,19.964,0,0,0-37.463-4.768,4.147,4.147,0,0,1,5.19,1.236l1.742,2.614a12.173,12.173,0,0,1,8.346-6.735,12.017,12.017,0,0,1,13.942,7.654h-.642a1.327,1.327,0,0,0-1.1,2.062L86.532,57a1.327,1.327,0,0,0,2.207,0l5.3-7.956A1.327,1.327,0,0,0,92.939,46.977Z" transform="translate(-53.753 -31.076)"/>
      </g>
    </g>
    <g id="rupee" transform="translate(18.393 13.287)">
      <g id="Group_557" data-name="Group 557">
        <path id="Path_584" data-name="Path 584" class="cls-2" d="M67.027,4.33H64.583A4.817,4.817,0,0,0,62.654.962h4.374a.481.481,0,0,0,0-.962H56.846a.481.481,0,0,0,0,.962h2.916A3.888,3.888,0,0,1,63.616,4.33h-6.77a.481.481,0,0,0,0,.962h6.77a3.9,3.9,0,0,1-3.854,3.416H56.851a.489.489,0,0,0-.481.5.5.5,0,0,0,.149.346l7.28,6.885a.479.479,0,0,0,.678-.019.491.491,0,0,0-.019-.688l-6.4-6.058h1.7a4.86,4.86,0,0,0,4.826-4.379h2.444a.481.481,0,0,0,0-.962Z" transform="translate(-56.365)"/>
      </g>
    </g>
  </g>
</svg>
