<svg xmlns="http://www.w3.org/2000/svg" width="56.72" height="47.817" viewBox="0 0 56.72 47.817">
  <defs>
    <style>
      .cls-1 {
        fill: #23c181;
      }

      .cls-2 {
        fill: #029056;
      }

      .cls-3 {
        fill: #0caa7d;
      }
    </style>
  </defs>
  <g id="wifi" transform="translate(0 -38.8)">
    <path id="Path_712" data-name="Path 712" class="cls-1" d="M5.874,0A5.874,5.874,0,1,1,0,5.874,5.874,5.874,0,0,1,5.874,0Z" transform="translate(22.669 74.869)"/>
    <path id="Path_693" data-name="Path 693" class="cls-2" d="M221.06,368.4a5.841,5.841,0,0,1-8.26,8.26" transform="translate(-188.387 -291.787)"/>
    <path id="Path_694" data-name="Path 694" class="cls-1" d="M106.888,153.524a2.847,2.847,0,0,1-2.019-.826,21.72,21.72,0,0,0-15.6-6.516,22.011,22.011,0,0,0-15.6,6.425,2.855,2.855,0,1,1-4.038-4.038A27.849,27.849,0,0,1,89.358,140.4h0a28.009,28.009,0,0,1,19.733,8.168,2.881,2.881,0,0,1,0,4.038A3.588,3.588,0,0,1,106.888,153.524Z" transform="translate(-60.907 -89.944)"/>
    <path id="Path_695" data-name="Path 695" class="cls-2" d="M91.391,166.8a28.009,28.009,0,0,0-19.733,8.168c-.184.184-.275.367-.459.551a2.433,2.433,0,0,0,.459.551,2.881,2.881,0,0,0,4.038,0,21.937,21.937,0,0,1,31.2,0,2.881,2.881,0,0,0,4.038,0c.184-.184.275-.367.459-.551a2.433,2.433,0,0,0-.459-.551A26.9,26.9,0,0,0,91.391,166.8Z" transform="translate(-63.032 -113.315)"/>
    <path id="Path_696" data-name="Path 696" class="cls-1" d="M53.874,55.045a2.847,2.847,0,0,1-2.019-.826,33.236,33.236,0,0,0-46.991,0,2.881,2.881,0,0,1-4.038,0,2.881,2.881,0,0,1,0-4.038A38.741,38.741,0,0,1,28.36,38.8h0A38.741,38.741,0,0,1,55.893,50.181a2.881,2.881,0,0,1,0,4.038A2.847,2.847,0,0,1,53.874,55.045Z" transform="translate(0)"/>
    <path id="Path_697" data-name="Path 697" class="cls-3" d="M31.9,65.2A38.741,38.741,0,0,0,4.367,76.581,1.611,1.611,0,0,0,4,77.039a2,2,0,0,0,.367.459,2.881,2.881,0,0,0,4.038,0A33.348,33.348,0,0,1,55.4,77.59a2.881,2.881,0,0,0,4.038,0,1.611,1.611,0,0,0,.367-.459,2,2,0,0,0-.367-.459A38.451,38.451,0,0,0,31.9,65.2Z" transform="translate(-3.541 -23.371)"/>
    <path id="Path_698" data-name="Path 698" class="cls-1" d="M154.354,252.9a2.847,2.847,0,0,1-2.019-.826,11.931,11.931,0,0,0-8.535-3.488,12.324,12.324,0,0,0-8.535,3.488,2.855,2.855,0,0,1-4.038-4.038A17.559,17.559,0,0,1,143.8,242.8h0a17.559,17.559,0,0,1,12.574,5.231,2.881,2.881,0,0,1,0,4.038A2.847,2.847,0,0,1,154.354,252.9Z" transform="translate(-115.44 -180.596)"/>
    <path id="Path_699" data-name="Path 699" class="cls-2" d="M147.341,270.8a17.559,17.559,0,0,0-12.574,5.231,2,2,0,0,0-.367.459,1.612,1.612,0,0,0,.367.459,2.881,2.881,0,0,0,4.038,0,11.931,11.931,0,0,1,8.535-3.488,12.324,12.324,0,0,1,8.535,3.488,2.881,2.881,0,0,0,4.038,0,2,2,0,0,0,.367-.459,1.612,1.612,0,0,0-.367-.459A17.559,17.559,0,0,0,147.341,270.8Z" transform="translate(-118.981 -205.384)"/>
  </g>
</svg>
