<?xml version="1.0" encoding="iso-8859-1"?>
<!-- Generator: Adobe Illustrator 19.0.0, SVG Export Plug-In . SVG Version: 6.00 Build 0)  -->
<svg version="1.1" id="Capa_1" xmlns="http://www.w3.org/2000/svg" xmlns:xlink="http://www.w3.org/1999/xlink" x="0px" y="0px"
	 viewBox="0 0 512.002 512.002" style="enable-background:new 0 0 512.002 512.002;" xml:space="preserve">
<path style="fill:#DAEFF6;" d="M384.017,118.818l-2.986,44.283l-28.754,16.041c-28.362,15.665-62.457,17.022-91.979,3.669
	c-29.513-13.396-63.626-12.031-91.979,3.669l-34.471,19.112l-5.717-85.494l187.626-0.939l51.194-0.256L384.017,118.818z"/>
<path style="fill:#62BEFF;" d="M381.031,163.101l-18.942,284.212l-216.38-63.993l-11.86-177.729l34.471-19.112
	c28.353-15.7,62.465-17.065,91.979-3.669c29.522,13.353,63.617,11.996,91.979-3.669L381.031,163.101z"/>
<path style="fill:#03AA6F;" d="M366.952,280.932H503.47c0.111,122.405-99.026,221.73-221.431,221.841c-0.137,0-0.273,0-0.41,0
	H169.113L366.952,280.932z"/>
<path style="fill:#DD2E2B;" d="M358.42,282.383h114.453v-1.451c0,105.622-85.622,191.244-191.244,191.244l0,0L358.42,282.383z"/>
<path d="M128.047,332.98h-17.065c0-31.945,10.802-63.421,30.401-88.625l1.058-1.357l13.455,10.495l-1.049,1.348
	C137.577,277.05,128.047,304.806,128.047,332.98z"/>
<path style="fill:#03AA6F;" d="M43.261,256.752L43.261,256.752c42.107,0,76.236,34.121,76.254,76.228l0,0l0,0l0,0
	c-42.116,0-76.254-34.138-76.254-76.254l0,0l0,0L43.261,256.752z"/>
<path style="fill:#EF5122;" d="M111.144,495.606c-16.894,9.445-37.645,8.635-53.754-2.09l0,0
	c-19.991-13.328-34.377-33.558-40.409-56.817l-5.256-20.102c-9.241-35.657,2.338-73.489,29.957-97.866l2.474-2.176
	c4.71-4.164,10.367-7.09,16.484-8.532h2.398c14.454,15.93,34.966,25,56.476,24.957l0,0v-0.188c3.43,0,6.758-1.212,9.386-3.413
	l16.339-13.652c14.454-12.039,35.537-11.74,49.641,0.708l2.474,2.176c22.141,19.539,34.266,48.037,32.995,77.542L111.144,495.606z"
	/>
<path style="fill:#FFDB6F;" d="M358.198,239.815c7.466,3.114,12.321,10.401,12.321,18.49v35.836
	c0.068,44.599-13.251,88.199-38.233,125.144c-37.687,55.017-101.364,86.373-167.951,82.704
	c-32.065-1.485-63.284-10.708-91.006-26.885l-1.177-0.691v-31.109l37.79-2.833c107.175-8.029,195.203-87.815,213.701-193.684
	c1.382-8.703,9.556-14.641,18.259-13.259c1.22,0.196,2.406,0.529,3.549,0.998L358.198,239.815z"/>
<path style="fill:#62BEFF;" d="M264.564,212.674H247.5V67.624c0-2.918,1.485-5.631,3.95-7.201l93.856-59.726l9.164,14.403
	l-89.905,57.209V212.674z"/>
<rect x="392.575" y="306.521" width="17.065" height="17.065"/>
<rect x="366.978" y="391.844" width="17.065" height="17.065"/>
<rect x="392.575" y="357.715" width="17.065" height="17.065"/>
<rect x="332.86" y="110.498" transform="matrix(-1 0.0054 -0.0054 -1 683.4225 236.2166)" width="17.065" height="17.065"/>
<path d="M8.688,438.84c6.544,25.298,22.193,47.295,43.942,61.774c18.754,12.594,43.012,13.532,62.687,2.432l-0.478-0.853
	c15.973,4.727,32.457,7.508,49.095,8.293c1.706,0.085,3.413,0.085,5.179,0.119v0.7h112.516
	c127.115,0.111,230.262-102.849,230.373-229.964c0-0.137,0-0.273,0-0.41c0-4.71-3.823-8.532-8.532-8.532H382.311l10.239-153.019
	c0.145-2.363-0.683-4.684-2.295-6.416c-1.672-1.647-3.899-2.602-6.237-2.679l-17.065,0.094l0.085,17.065h7.901l-2.039,30.52
	l-24.744,13.729c-25.768,14.223-56.697,15.58-83.617,3.677v-47.406l51.237-0.265l-0.085-17.065l-51.126,0.265V72.308l89.905-57.167
	l-9.164-14.445L251.45,60.423c-2.466,1.57-3.95,4.283-3.95,7.201v43.361L128.09,111.6c-4.71,0.026-8.507,3.865-8.481,8.584
	c0,0.171,0.009,0.35,0.017,0.52l9.496,142.405c-4.983,9.061-8.985,18.626-11.945,28.541c-14.974-26.792-43.25-43.395-73.941-43.43
	c-4.71,0-8.532,3.822-8.532,8.532c-0.017,16.561,4.855,32.756,13.993,46.561c-3.695,1.817-7.142,4.113-10.239,6.826l-2.474,2.184
	C5.881,338.765-6.704,379.942,3.475,418.696L8.688,438.84z M164.727,493.447c-29.488-1.399-58.259-9.616-84.044-23.993v-18.234
	l29.863-2.253c111.083-8.311,202.327-91.023,221.465-200.766c0.375-2.338,1.809-4.369,3.882-5.503
	c1.92-1.067,4.215-1.186,6.237-0.333l12.747,5.324c4.292,1.775,7.082,5.973,7.073,10.614v35.836
	c0.077,42.901-12.739,84.837-36.774,120.374c-35.878,52.687-96.808,82.661-160.442,78.924L164.727,493.447z M494.767,289.465
	c-4.471,114.444-98.608,204.887-213.138,204.776h-27.193c9.428-4.053,18.515-8.848,27.193-14.326v0.793
	c27.781,0.051,55.272-5.742,80.665-17.013c69.47-30.802,115.502-98.31,118.796-174.23L494.767,289.465L494.767,289.465z
	 M379.051,294.115v-4.65h84.974c-3.285,69.172-45.332,130.57-108.642,158.633c-15.802,6.988-32.517,11.672-49.641,13.916
	c12.799-11.152,24.095-23.916,33.609-37.977C365.306,385.684,379.137,340.42,379.051,294.115z M247.5,128.05v41.254
	c-27.986-7.756-57.9-4.258-83.335,9.752l-22.713,12.619l-4.198-63.063L247.5,128.05z M154.873,254.849l1.041-1.348l-10.896-8.404
	l-2.312-34.565l29.71-16.561c25.998-14.368,57.243-15.64,84.317-3.413c31.996,14.471,68.941,12.986,99.666-4.01l15.077-8.37
	l-3.823,57.371c-1.903-1.468-3.985-2.679-6.194-3.626l0,0l-12.747-5.316c-6.809-2.858-14.548-2.449-21.015,1.109
	c-6.63,3.626-11.237,10.094-12.491,17.551c-9.044,52.414-36.356,99.939-77.09,134.145c-3.003-25.938-15.495-49.846-35.085-67.107
	l-2.474-2.184c-17.227-15.333-43.097-15.699-60.742-0.853l-10.742,8.959C131.758,295.147,140.683,273.236,154.873,254.849z
	 M110.368,323.859c-30.128-4.147-53.813-27.832-57.96-57.96C82.527,270.054,106.213,293.74,110.368,323.859z M47.331,325.104
	l2.474-2.184c3.029-2.585,6.553-4.531,10.35-5.725c15.819,15.597,37.141,24.334,59.359,24.317c0.546-0.051,1.084-0.162,1.604-0.324
	c4.855-0.307,9.479-2.142,13.234-5.23l16.339-13.652c11.194-9.411,27.611-9.172,38.532,0.555l2.474,2.184
	c19.147,16.868,30.102,41.16,30.068,66.68c-33.191,23.285-72.056,37.184-112.49,40.23l-37.79,2.841
	c-4.462,0.333-7.901,4.061-7.892,8.532v31.083c0.009,3.038,1.638,5.845,4.266,7.363l1.186,0.7
	c6.979,4.053,14.198,7.696,21.604,10.913c-10.043,1.118-20.153-1.348-28.558-6.962c-18.259-12.159-31.39-30.623-36.885-51.86
	l-5.222-20.136C11.444,381.879,22.033,347.289,47.331,325.104z"/>
<rect x="392.575" y="306.53" width="17.065" height="17.065"/>
<rect x="366.978" y="391.853" width="17.065" height="17.065"/>
<rect x="392.575" y="357.724" width="17.065" height="17.065"/>
<g>
</g>
<g>
</g>
<g>
</g>
<g>
</g>
<g>
</g>
<g>
</g>
<g>
</g>
<g>
</g>
<g>
</g>
<g>
</g>
<g>
</g>
<g>
</g>
<g>
</g>
<g>
</g>
<g>
</g>
</svg>
