<svg id="icons" enable-background="new 0 0 64 64" height="512" viewBox="0 0 64 64" width="512" xmlns="http://www.w3.org/2000/svg"><path d="m42.005 13.01-2 2h-.01l-1.99-1.989-2 1.989-2-2-2 2-2-2-2 2h-.01l-1.99-1.989-2 1.989-2-2-2 2-2-2-2 2h-.01l-1.99-1.989-2 1.989-2-2-2 2v47.99h35.99v-47.99-.01z" fill="#ffce54"/><path d="m24.005 15.01-2-2-2 2-2-2-2 2h-.01l-1.99-1.989v-.011h-.01v-6.01c0-3.32 2.689-6 6-6 3.319 0 6 2.68 6 6v6.01h.01v.011z" fill="#ffd2a6"/><path d="m49.995 13.01v.011l-1.99 1.989-2-2-2 2h-.01v-.01-6h6v4z" fill="#ccd1d9"/><path d="m35.005 6h11.99l-3 3h-11.99z" fill="#ccd1d9"/><path d="m43.995 9v6l-1.99-1.99-2 2h-.01l-1.99-1.989-2 1.989-2-2-2 2v-6.01z" fill="#e6e9ed"/><path d="m46.995 6 3 3h-6z" fill="#aab2bd"/><path d="m35.005 3h11.99v3h-11.99z" fill="#e6e9ed"/><path d="m55.995 63h-12l6-5z" fill="#e29f33"/><path d="m49.995 13.021v44.979l-6 5v-47.99h.01l2-2 2 2z" fill="#f6bb42"/><path d="m55.995 15.01v47.99l-6-5v-44.979l.01-.011 1.99 2h.01l2-2z" fill="#edab37"/><path d="m25.995 30.99c1.66 0 3 1.34 3 3 0 1.649-1.34 3-3 3-1.65 0-3-1.351-3-3 0-1.66 1.35-3 3-3z" fill="#da4453"/><path d="m25.995 26.99c3.87 0 7 3.13 7 7 0 3.859-3.13 7-7 7-3.86 0-7-3.141-7-7 0-3.87 3.14-7 7-7zm3 7c0-1.66-1.34-3-3-3-1.65 0-3 1.34-3 3 0 1.649 1.35 3 3 3 1.66 0 3-1.35 3-3z" fill="#ed5565"/><path d="m43.995 64h-35.992c-.553 0-1-.447-1-1v-47.988c0-.553.447-1 1-1s1 .447 1 1v46.988h33.992v-46.988c0-.553.447-1 1-1s1 .447 1 1v47.988c0 .553-.447 1-1 1z"/><path d="m55.995 64h-12c-.553 0-1-.447-1-1v-47.988c0-.553.447-1 1-1s1 .447 1 1v46.988h10v-46.988c0-.553.447-1 1-1s1 .447 1 1v47.988c0 .553-.447 1-1 1z"/><path d="m49.995 59c-.553 0-1-.447-1-1v-44.986c0-.553.447-1 1-1s1 .447 1 1v44.986c0 .553-.447 1-1 1z"/><path d="m43.996 64c-.287 0-.571-.122-.77-.359-.354-.425-.296-1.056.128-1.409l6-5c.426-.353 1.056-.296 1.409.128.354.425.296 1.056-.128 1.409l-6 5c-.187.155-.413.231-.639.231z"/><path d="m55.994 64c-.226 0-.452-.076-.64-.231l-6-5c-.424-.354-.481-.984-.128-1.409.354-.424.983-.48 1.409-.128l6 5c.424.354.481.984.128 1.409-.198.237-.482.359-.769.359z"/><path d="m8.003 16.01c-.256 0-.512-.098-.707-.293-.391-.391-.391-1.023 0-1.414l1.996-1.996c.391-.391 1.023-.391 1.414 0s.391 1.023 0 1.414l-1.996 1.996c-.195.195-.451.293-.707.293z"/><path d="m11.998 16.01c-.256 0-.512-.098-.707-.293l-1.996-1.998c-.391-.391-.391-1.024 0-1.414.391-.391 1.023-.391 1.414 0l1.996 1.998c.391.391.391 1.024 0 1.414-.195.195-.451.293-.707.293z"/><path d="m12.004 16.01c-.256 0-.512-.098-.707-.293-.391-.391-.391-1.023 0-1.414l1.996-1.996c.391-.391 1.023-.391 1.414 0s.391 1.023 0 1.414l-1.996 1.996c-.195.195-.451.293-.707.293z"/><path d="m15.996 16.01c-.256 0-.512-.098-.707-.293l-1.996-1.998c-.391-.391-.391-1.024 0-1.414.391-.391 1.023-.391 1.414 0l1.996 1.998c.391.391.391 1.024 0 1.414-.195.195-.451.293-.707.293z"/><path d="m16.002 16.01c-.256 0-.512-.098-.707-.293-.391-.391-.391-1.023 0-1.414l1.996-1.996c.391-.391 1.023-.391 1.414 0s.391 1.023 0 1.414l-1.996 1.996c-.195.195-.451.293-.707.293z"/><path d="m19.997 16.01c-.256 0-.512-.098-.707-.293l-1.996-1.998c-.391-.391-.391-1.024 0-1.414.391-.391 1.023-.391 1.414 0l1.996 1.998c.391.391.391 1.024 0 1.414-.195.195-.451.293-.707.293z"/><path d="m20.003 16.01c-.256 0-.512-.098-.707-.293-.391-.391-.391-1.023 0-1.414l1.996-1.996c.391-.391 1.023-.391 1.414 0s.391 1.023 0 1.414l-1.996 1.996c-.195.195-.451.293-.707.293z"/><path d="m23.998 16.01c-.256 0-.512-.098-.707-.293l-1.996-1.998c-.391-.391-.391-1.024 0-1.414.391-.391 1.023-.391 1.414 0l1.996 1.998c.391.391.391 1.024 0 1.414-.195.195-.451.293-.707.293z"/><path d="m24.004 16.01c-.256 0-.512-.098-.707-.293-.391-.391-.391-1.023 0-1.414l1.996-1.996c.391-.391 1.023-.391 1.414 0s.391 1.023 0 1.414l-1.996 1.996c-.195.195-.451.293-.707.293z"/><path d="m27.996 16.01c-.256 0-.512-.098-.707-.293l-1.996-1.998c-.391-.391-.391-1.024 0-1.414.391-.391 1.023-.391 1.414 0l1.996 1.998c.391.391.391 1.024 0 1.414-.195.195-.451.293-.707.293z"/><path d="m28.002 16.01c-.256 0-.512-.098-.707-.293-.391-.391-.391-1.023 0-1.414l1.996-1.996c.391-.391 1.023-.391 1.414 0s.391 1.023 0 1.414l-1.996 1.996c-.195.195-.451.293-.707.293z"/><path d="m31.997 16.01c-.256 0-.512-.098-.707-.293l-1.996-1.998c-.391-.391-.391-1.024 0-1.414.391-.391 1.023-.391 1.414 0l1.996 1.998c.391.391.391 1.024 0 1.414-.195.195-.451.293-.707.293z"/><path d="m32.003 16.01c-.256 0-.512-.098-.707-.293-.391-.391-.391-1.023 0-1.414l1.996-1.996c.391-.391 1.023-.391 1.414 0s.391 1.023 0 1.414l-1.996 1.996c-.195.195-.451.293-.707.293z"/><path d="m35.998 16.01c-.256 0-.512-.098-.707-.293l-1.996-1.998c-.391-.391-.391-1.024 0-1.414.391-.391 1.023-.391 1.414 0l1.996 1.998c.391.391.391 1.024 0 1.414-.195.195-.451.293-.707.293z"/><path d="m36.004 16.01c-.256 0-.512-.098-.707-.293-.391-.391-.391-1.023 0-1.414l1.996-1.996c.391-.391 1.023-.391 1.414 0s.391 1.023 0 1.414l-1.996 1.996c-.195.195-.451.293-.707.293z"/><path d="m39.996 16.01c-.256 0-.512-.098-.707-.293l-1.996-1.998c-.391-.391-.391-1.024 0-1.414.391-.391 1.023-.391 1.414 0l1.996 1.998c.391.391.391 1.024 0 1.414-.195.195-.451.293-.707.293z"/><path d="m40.002 16.01c-.256 0-.512-.098-.707-.293-.391-.391-.391-1.023 0-1.414l1.996-1.996c.391-.391 1.023-.391 1.414 0s.391 1.023 0 1.414l-1.996 1.996c-.195.195-.451.293-.707.293z"/><path d="m43.997 16.01c-.256 0-.512-.098-.707-.293l-1.996-1.998c-.391-.391-.391-1.024 0-1.414.391-.391 1.023-.391 1.414 0l1.996 1.998c.391.391.391 1.024 0 1.414-.195.195-.451.293-.707.293z"/><path d="m44.003 16.01c-.256 0-.512-.098-.707-.293-.391-.391-.391-1.023 0-1.414l1.996-1.996c.391-.391 1.023-.391 1.414 0s.391 1.023 0 1.414l-1.996 1.996c-.195.195-.451.293-.707.293z"/><path d="m47.998 16.01c-.256 0-.512-.098-.707-.293l-1.996-1.998c-.391-.391-.391-1.024 0-1.414.391-.391 1.023-.391 1.414 0l1.996 1.998c.391.391.391 1.024 0 1.414-.195.195-.451.293-.707.293z"/><path d="m48.004 16.01c-.256 0-.512-.098-.707-.293-.391-.391-.391-1.023 0-1.414l1.996-1.996c.391-.391 1.023-.391 1.414 0s.391 1.023 0 1.414l-1.996 1.996c-.195.195-.451.293-.707.293z"/><path d="m51.996 16.01c-.256 0-.512-.098-.707-.293l-1.996-1.998c-.391-.391-.391-1.024 0-1.414.391-.391 1.023-.391 1.414 0l1.996 1.998c.391.391.391 1.024 0 1.414-.195.195-.451.293-.707.293z"/><path d="m52.002 16.01c-.256 0-.512-.098-.707-.293-.391-.391-.391-1.023 0-1.414l1.996-1.996c.391-.391 1.023-.391 1.414 0s.391 1.023 0 1.414l-1.996 1.996c-.195.195-.451.293-.707.293z"/><path d="m55.997 16.01c-.256 0-.512-.098-.707-.293l-1.996-1.998c-.391-.391-.391-1.024 0-1.414.391-.391 1.023-.391 1.414 0l1.996 1.998c.391.391.391 1.024 0 1.414-.195.195-.451.293-.707.293z"/><path d="m25.996 8c-.553 0-1-.447-1-1 0-2.757-2.243-5-5-5s-5 2.243-5 5c0 .553-.447 1-1 1s-1-.447-1-1c0-3.859 3.141-7 7-7s7 3.141 7 7c0 .553-.447 1-1 1z"/><path d="m13.996 14.014c-.553 0-1-.447-1-1v-6.014c0-.553.447-1 1-1s1 .447 1 1v6.014c0 .552-.447 1-1 1z"/><path d="m25.996 14.014c-.553 0-1-.447-1-1v-6.014c0-.553.447-1 1-1s1 .447 1 1v6.014c0 .552-.447 1-1 1z"/><path d="m21.996 11h-3.995c-.553 0-1-.447-1-1s.447-1 1-1h3.995c.553 0 1 .447 1 1s-.447 1-1 1z"/><path d="m31.997 16.016c-.553 0-1-.447-1-1v-6.016c0-.553.447-1 1-1s1 .447 1 1v6.016c0 .552-.447 1-1 1z"/><path d="m43.99 10h-11.993c-.553 0-1-.447-1-1s.447-1 1-1h11.993c.553 0 1 .447 1 1s-.447 1-1 1z"/><path d="m43.99 16.016c-.553 0-1-.447-1-1v-6.016c0-.553.447-1 1-1s1 .447 1 1v6.016c0 .552-.447 1-1 1z"/><path d="m43.99 10c-.256 0-.512-.098-.707-.293-.391-.391-.391-1.023 0-1.414l3-3c.391-.391 1.023-.391 1.414 0s.391 1.023 0 1.414l-3 3c-.195.195-.451.293-.707.293z"/><path d="m31.998 10c-.256 0-.512-.098-.707-.293-.391-.391-.391-1.023 0-1.414l3-3c.391-.391 1.023-.391 1.414 0s.391 1.023 0 1.414l-3 3c-.195.195-.451.293-.707.293z"/><path d="m49.991 10c-.256 0-.512-.098-.707-.293l-3.001-3c-.391-.391-.391-1.023 0-1.414s1.023-.391 1.414 0l3.001 3c.391.391.391 1.023 0 1.414-.195.195-.451.293-.707.293z"/><path d="m49.991 10h-6.001c-.553 0-1-.447-1-1s.447-1 1-1h6.001c.553 0 1 .447 1 1s-.447 1-1 1z"/><path d="m46.99 7h-11.992c-.553 0-1-.447-1-1s.447-1 1-1h11.992c.553 0 1 .447 1 1s-.447 1-1 1z"/><path d="m49.991 14.008c-.553 0-1-.447-1-1v-4.008c0-.553.447-1 1-1s1 .447 1 1v4.008c0 .553-.447 1-1 1z"/><path d="m34.998 7c-.553 0-1-.447-1-1v-2.999c0-.553.447-1 1-1s1 .447 1 1v2.999c0 .553-.447 1-1 1z"/><path d="m46.994 4.001h-11.996c-.553 0-1-.447-1-1s.447-1 1-1h11.996c.553 0 1 .447 1 1s-.447 1-1 1z"/><path d="m46.994 7c-.553 0-1-.447-1-1v-2.999c0-.553.447-1 1-1s1 .447 1 1v2.999c0 .553-.447 1-1 1z"/><path d="m25.996 41.989c-4.411 0-8-3.589-8-8s3.589-8 8-8 8 3.589 8 8-3.589 8-8 8zm0-14c-3.309 0-6 2.691-6 6s2.691 6 6 6 6-2.691 6-6-2.691-6-6-6z"/><path d="m25.996 37.989c-2.206 0-4-1.794-4-4s1.794-4 4-4 4 1.794 4 4-1.794 4-4 4zm0-6c-1.103 0-2 .897-2 2s.897 2 2 2 2-.897 2-2-.897-2-2-2z"/><path d="m35.994 46.002h-19.996c-.553 0-1-.447-1-1s.447-1 1-1h19.996c.553 0 1 .447 1 1s-.447 1-1 1z"/><path d="m35.994 49.005h-19.996c-.553 0-1-.447-1-1s.447-1 1-1h19.996c.553 0 1 .447 1 1s-.447 1-1 1z"/><path d="m30.994 52.008h-9.996c-.553 0-1-.447-1-1s.447-1 1-1h9.996c.553 0 1 .447 1 1s-.447 1-1 1z"/></svg>