<svg id="Layer_1" enable-background="new 0 0 512 512" height="512" viewBox="0 0 512 512" width="512" xmlns="http://www.w3.org/2000/svg"><path d="m478.443 281.438c0-.003 0-.006 0-.008 0-.292-.021-.579-.054-.862-.009-.08-.025-.16-.037-.24-.032-.214-.071-.425-.12-.633-.009-.04-.013-.081-.023-.12l-51.92-203.764c10.218-5.973 17.102-17.053 17.102-29.717v-11.717c0-18.956-15.436-34.377-34.411-34.377h-314.327c-18.975 0-34.412 15.421-34.412 34.377v11.718c0 15.713 10.595 28.99 25.014 33.09l-51.516 201.665c-.156.611-.235 1.239-.235 1.87v198.686l-.001.522c-.017 4.452-.058 14.879 7.466 22.429 5.054 5.071 12.3 7.643 21.537 7.643h32.546.003 53.414 302.597c13.656 0 27.435-9.46 27.435-30.596zm-403.081-235.344v-11.717c0-10.621 8.654-19.262 19.291-19.262h314.327c10.637 0 19.291 8.641 19.291 19.262v11.718c0 8.547-5.593 15.803-13.307 18.329-.293.097-.591.174-.887.256-.278.076-.557.152-.84.217-.257.059-.516.11-.775.158-.357.065-.716.12-1.079.165-.21.027-.42.057-.631.076-.584.054-1.173.09-1.771.09h-124.462c-4.176 0-7.56 3.383-7.56 7.557s3.384 7.557 7.56 7.557h124.461c.539 0 1.076-.016 1.613-.041.194-.009.386-.024.579-.036.226-.014.452-.024.678-.042l30.138 118.277h-307.002l-30.385-118.159h141.164c4.176 0 7.56-3.383 7.56-7.557s-3.385-7.557-7.56-7.557h-150.913-.003-.196c-10.638 0-19.291-8.654-19.291-19.291zm65.546 450.791h-38.3l-.168-364.08 18.914 73.549c.022 1.226.334 2.38.874 3.397l18.681 72.645v214.489zm-89.227-3.195c-3.092-3.102-3.07-8.698-3.058-11.703l.001-198.318 38.695-151.472.168 364.688h-24.982c-5.07 0-8.711-1.075-10.824-3.195zm399.384 3.195h-295.036v-207.888h135.665c4.176 0 7.56-3.383 7.56-7.557s-3.384-7.557-7.56-7.557h-137.363l-15.458-60.111h306.966l15.317 60.111h-133.669c-4.176 0-7.56 3.383-7.56 7.557s3.384 7.557 7.56 7.557h135.838l.055 192.409c0 13.469-7.715 15.479-12.315 15.479z"/><path d="m343.388 324.553c-13.331-9.532-30.782-11.337-49.14-5.08-17.466 5.952-33.813 18.618-46.028 35.662-14.791 20.615-21.553 45.431-18.088 66.383 1.955 11.817 6.933 21.742 14.509 29.09.17.175.347.341.532.498 1.477 1.388 3.039 2.691 4.705 3.882 8.121 5.807 17.768 8.747 28.218 8.747 6.707 0 13.747-1.212 20.922-3.655 17.471-5.949 33.82-18.62 46.029-35.673 14.791-20.615 21.553-45.431 18.087-66.383-2.372-14.358-9.201-25.932-19.746-33.471zm-82.877 39.386c14.975-20.896 36.257-33.06 54.455-33.06 7.223 0 13.963 1.918 19.626 5.966.69.494 1.351 1.024 1.995 1.572-22.782 3.743-31.437 12.665-38.73 22.3-10.902 14.375-14.057 29.09-16.84 42.073-3.949 18.422-6.43 29.928-28.204 34.385-3.927-4.809-6.574-10.947-7.761-18.124-2.826-17.08 2.953-37.681 15.459-55.112zm72.246 51.665c-17.459 24.383-43.508 36.865-63.242 32.016 19.237-8.871 22.817-25.481 26.286-41.663 2.573-12.002 5.233-24.412 14.108-36.115 5.602-7.4 11.384-15.036 36.193-17.43.927 2.517 1.642 5.21 2.116 8.076 2.825 17.082-2.953 37.683-15.461 55.116z"/><path d="m177.099 123.623c0 4.174 3.385 7.557 7.56 7.557h173.579c4.176 0 7.56-3.383 7.56-7.557s-3.384-7.557-7.56-7.557h-173.578c-4.176 0-7.561 3.383-7.561 7.557z"/><path d="m190.839 155.456c-4.176 0-7.56 3.383-7.56 7.557s3.385 7.557 7.56 7.557h173.55c4.176 0 7.56-3.383 7.56-7.557s-3.384-7.557-7.56-7.557z"/></svg>