<?xml version="1.0" encoding="utf-8"?>
<!-- Generator: Adobe Illustrator 22.0.1, SVG Export Plug-In . SVG Version: 6.00 Build 0)  -->
<svg version="1.1" id="Layer_1" xmlns="http://www.w3.org/2000/svg" xmlns:xlink="http://www.w3.org/1999/xlink" x="0px" y="0px"
	 viewBox="0 0 512 512" style="enable-background:new 0 0 512 512;" xml:space="preserve">
<g>
	<path d="M177.3,98.6H87.8c-8.3,0-15,6.7-15,15s6.7,15,15,15h89.5c8.3,0,15-6.7,15-15S185.6,98.6,177.3,98.6z"/>
	<path d="M177.3,158.6H87.8c-8.3,0-15,6.7-15,15s6.7,15,15,15h89.5c8.3,0,15-6.7,15-15S185.6,158.6,177.3,158.6z"/>
	<path d="M177.3,218.6H87.8c-8.3,0-15,6.7-15,15s6.7,15,15,15h89.5c8.3,0,15-6.7,15-15S185.6,218.6,177.3,218.6z"/>
	<path d="M177.3,278.6H87.8c-8.3,0-15,6.7-15,15s6.7,15,15,15h89.5c8.3,0,15-6.7,15-15S185.6,278.6,177.3,278.6z"/>
	<path d="M177.3,339.7H87.8c-8.3,0-15,6.7-15,15c0,8.3,6.7,15,15,15h89.5c8.3,0,15-6.7,15-15C192.3,346.4,185.6,339.7,177.3,339.7z"
		/>
	<path d="M227.7,128.6h89.5c8.3,0,15-6.7,15-15s-6.7-15-15-15h-89.5c-8.3,0-15,6.7-15,15S219.4,128.6,227.7,128.6z"/>
	<path d="M227.7,188.6h89.5c8.3,0,15-6.7,15-15s-6.7-15-15-15h-89.5c-8.3,0-15,6.7-15,15S219.4,188.6,227.7,188.6z"/>
	<path d="M285.8,233.6c0-8.3-6.7-15-15-15h-43.1c-8.3,0-15,6.7-15,15s6.7,15,15,15h43.1C279.1,248.6,285.8,241.9,285.8,233.6z"/>
	<path d="M357.5,437.2c-2.8,0-5.6-1.1-7.8-3.2l-38.9-38.9c-4.3-4.3-4.3-11.3,0-15.6s11.3-4.3,15.6,0l31.1,31.1l70-70
		c4.3-4.3,11.3-4.3,15.6,0c4.3,4.3,4.3,11.3,0,15.6L365.3,434C363.1,436.2,360.3,437.2,357.5,437.2z"/>
	<path d="M465.8,299.9c-19.5-19.9-44.6-32.4-71.8-36.1V60.4c0-33.3-27.1-60.4-60.4-60.4H71.4C38.1,0,11,27.1,11,60.4v347.5
		c0,33.3,27.1,60.4,60.4,60.4h210.8c23.7,27.9,57.8,43.7,94.7,43.7c68.7,0,124.6-55.9,124.6-124.7
		C501.5,354.4,488.8,323.4,465.8,299.9z M41,407.9V60.4C41,43.6,54.6,30,71.4,30h262.1c16.8,0,30.4,13.6,30.4,30.4v202.9
		c-62.6,6.5-111.6,59.6-111.6,124c0,17.8,3.7,35.1,10.9,51H71.4C54.6,438.3,41,424.7,41,407.9z M377,482c-30,0-57.5-13.8-75.6-37.7
		c-12.4-16.5-19-36.2-19-56.9c0-52.2,42.4-94.7,94.6-94.7c0.5,0,1,0,1.5,0l0.2,0c24.9,0.4,48.2,10.5,65.7,28.3
		c17.5,17.8,27.1,41.4,27.1,66.4C471.5,439.5,429.1,482,377,482z"/>
</g>
</svg>
