<?xml version="1.0" encoding="utf-8"?>
<!-- Generator: Adobe Illustrator 22.0.1, SVG Export Plug-In . SVG Version: 6.00 Build 0)  -->
<svg version="1.1" id="Capa_1" xmlns="http://www.w3.org/2000/svg" xmlns:xlink="http://www.w3.org/1999/xlink" x="0px" y="0px"
	 viewBox="0 0 512 512" style="enable-background:new 0 0 512 512;" xml:space="preserve">
<style type="text/css">
	.st0{fill:none;stroke:#000000;stroke-width:20;stroke-miterlimit:10;}
	.st1{fill:#FFFFFF;stroke:#000000;stroke-width:20;stroke-miterlimit:10;}
	.st2{fill:#FFFFFF;stroke:#000000;stroke-width:15;stroke-miterlimit:10;}
	.st3{fill:none;stroke:#050200;stroke-width:15;stroke-miterlimit:10;}
	.st4{fill:#000102;}
</style>
<g>
	<path class="st0" d="M371.5,24.3v463.4c0,13.4-10.9,24.3-24.3,24.3H26.8c-13.4,0-24.3-10.9-24.3-24.3V118.3L120.8,0h226.4
		C360.6,0,371.5,10.9,371.5,24.3z"/>
	<path class="st0" d="M109.2,15.5L13,111.7h78.9c9.6,0,17.3-7.8,17.3-17.3C109.2,94.4,109.2,15.5,109.2,15.5z"/>
	<path d="M240.6,147.3H133.4c-4.1,0-7.5-3.4-7.5-7.5s3.4-7.5,7.5-7.5h107.2c4.1,0,7.5,3.4,7.5,7.5S244.7,147.3,240.6,147.3z"/>
	<g>
		<path d="M317.2,229H56.8c-4.1,0-7.5-3.4-7.5-7.5s3.4-7.5,7.5-7.5h260.3c4.1,0,7.5,3.4,7.5,7.5S321.3,229,317.2,229z"/>
		<path d="M317.2,292.2H56.8c-4.1,0-7.5-3.4-7.5-7.5s3.4-7.5,7.5-7.5h260.3c4.1,0,7.5,3.4,7.5,7.5S321.3,292.2,317.2,292.2z"/>
		<path d="M317.2,355.5H56.8c-4.1,0-7.5-3.4-7.5-7.5s3.4-7.5,7.5-7.5h260.3c4.1,0,7.5,3.4,7.5,7.5S321.3,355.5,317.2,355.5z"/>
		<path d="M317.2,418.7H56.8c-4.1,0-7.5-3.4-7.5-7.5s3.4-7.5,7.5-7.5h260.3c4.1,0,7.5,3.4,7.5,7.5S321.3,418.7,317.2,418.7z"/>
	</g>
	<path class="st1" d="M439.3,185.4c-1.9-5.7-6.6-9.9-12.5-10.9c-18-2.8-36.4-4.3-55.2-4.3s-37.2,1.5-55.2,4.3
		c-5.9,0.9-10.7,5.2-12.5,10.9c-9.8,29.7-32.1,53.8-60.6,66c-6.4,2.7-10.3,9.3-9.6,16.1c8.4,80.1,60.6,153.3,132,182.4
		c3.8,1.5,8.1,1.5,11.9,0c71.4-29.1,123.5-102.3,132-182.4c0.7-6.9-3.2-13.4-9.6-16.1C471.3,239.1,449.1,215.1,439.3,185.4z"/>
	<path class="st2" d="M341.2,247.2v11c0,16.7,13.6,30.3,30.3,30.3l0,0c16.7,0,30.3-13.6,30.3-30.3v-11c0-16.7-13.6-30.3-30.3-30.3
		l0,0C354.8,216.9,341.2,230.5,341.2,247.2z"/>
	<path class="st3" d="M417.4,307.8c-3.6-5.6-11.1-7.4-16.7-3.8c-8.4,5.4-18.5,8.5-29.2,8.5c-10.7,0-20.8-3.1-29.2-8.5
		c-5.6-3.6-13.1-1.9-16.7,3.8c-5.3,8.4-8.4,18.4-8.4,29.1v23.5c0,7.1,5.7,12.8,12.8,12.8h83.1c7.1,0,12.8-5.7,12.8-12.8v-23.5
		C425.8,326.1,422.8,316.2,417.4,307.8z"/>
	<path class="st4" d="M371.5,312.5c-9.4,0-18.2-2.4-25.8-6.6l20.6,34c2.4,3.9,8,3.9,10.4,0l20.6-34
		C389.7,310.2,380.9,312.5,371.5,312.5z"/>
</g>
</svg>
