<?xml version="1.0" encoding="utf-8"?>
<!-- Generator: Adobe Illustrator 22.0.1, SVG Export Plug-In . SVG Version: 6.00 Build 0)  -->
<svg version="1.1" id="Layer_1" xmlns="http://www.w3.org/2000/svg" xmlns:xlink="http://www.w3.org/1999/xlink" x="0px" y="0px"
	 viewBox="0 0 512 512" style="enable-background:new 0 0 512 512;" xml:space="preserve">
<style type="text/css">
	.st0{fill:none;stroke:#000000;stroke-width:25;stroke-miterlimit:10;}
</style>
<g>
	<path class="st0" d="M485.8,256c0,126.9-102.9,229.8-229.8,229.8S26.2,382.9,26.2,256S129.1,26.2,256,26.2S485.8,129.1,485.8,256z"
		/>
	<path d="M319.6,257.9c24.5-19.1,40.3-49.5,40.3-83.7c0-57.7-45.2-104.7-100.8-104.7c-55.6,0-100.8,47-100.8,104.7
		c0,34.2,15.8,64.6,40.3,83.7c-65.5,25.5-112.2,91.2-112.2,168h31.2c0-81.1,63.5-147,141.5-147c78,0,141.5,65.9,141.5,147h31.2
		C431.8,349.1,385.1,283.4,319.6,257.9z M189.1,170.2c0-38.3,30-69.5,66.9-69.5s66.9,31.2,66.9,69.5s-30,69.5-66.9,69.5
		S189.1,208.5,189.1,170.2z"/>
</g>
</svg>
