<?xml version="1.0" encoding="utf-8"?>
<!-- Generator: Adobe Illustrator 22.0.1, SVG Export Plug-In . SVG Version: 6.00 Build 0)  -->
<svg version="1.1" id="Capa_1" xmlns="http://www.w3.org/2000/svg" xmlns:xlink="http://www.w3.org/1999/xlink" x="0px" y="0px"
	 viewBox="0 0 487.6 487.6" style="enable-background:new 0 0 487.6 487.6;" xml:space="preserve">
<g>
	<g>
		<path d="M460.3,216.5h-11.6v-69.7c0-28.5-23.2-51.6-51.6-51.6h-10.7l0.1-25.9c0-19.2-15.6-34.8-34.8-34.8H42.3
			c-23.1,0-42,18.6-42.3,41.7c0,0.2,0,0.4,0,0.6v341.4C0,437.5,15.6,453,34.8,453h362.4c28.5,0,51.6-23.2,51.6-51.6v-69.8h11.6
			c15,0,27.2-12.2,27.2-27.2v-60.7C487.5,228.7,475.3,216.5,460.3,216.5z M42.3,58.5h309.4c5.9,0,10.8,4.8,10.8,10.7l-0.1,26H42.3
			C32.2,95.2,24,87,24,76.9S32.2,58.5,42.3,58.5z M424.7,401.4c0,15.2-12.4,27.6-27.6,27.6H34.7c-5.9,0-10.8-4.8-10.8-10.8V115.1
			c5.6,2.7,11.8,4.2,18.4,4.2h354.8c15.2,0,27.6,12.4,27.6,27.6v69.7h-81.9c-15,0-27.2,12.2-27.2,27.2v60.7
			c0,15,12.2,27.2,27.2,27.2h81.9L424.7,401.4L424.7,401.4z M463.5,304.5c0,1.8-1.4,3.2-3.2,3.2H342.9c-1.8,0-3.2-1.4-3.2-3.2v-60.7
			c0-1.7,1.4-3.2,3.2-3.2h117.4c1.7,0,3.2,1.4,3.2,3.2V304.5L463.5,304.5z"/>
	</g>
	<g>
		<g>
			<path d="M285.3,208.5h-42.6c-2.4-23.5-15.1-45.3-33.6-58.7h76.3c4.6,0,8.4-3.8,8.4-8.4c0-4.6-3.8-8.4-8.4-8.4H107.8
				c-4.6,0-8.4,3.8-8.4,8.4c0,4.6,3.8,8.4,8.4,8.4h50.8c34.6,0,63.1,26,67.2,58.7h-118c-4.6,0-8.4,3.8-8.4,8.4
				c0,4.6,3.8,8.4,8.4,8.4h118c-4.2,34-33.1,59.5-67.2,59.6h-50.8c-4.7,0.1-8.5,3.9-8.4,8.6c0,2.3,1,4.4,2.6,6L229,419.6
				c3.4,3.2,8.6,3,11.8-0.3c3.2-3.4,3-8.7-0.3-12L128.8,301.6h29.7c43.8,0,80-33.6,84.2-76.3h42.6c4.6,0,8.4-3.8,8.4-8.4
				C293.7,212.3,289.9,208.5,285.3,208.5z"/>
		</g>
	</g>
</g>
</svg>
